<mxfile host="Electron" agent="Mozilla/5.0 (Windows NT 10.0; Win64; x64) AppleWebKit/537.36 (KHTML, like Gecko) draw.io/27.0.5 Chrome/134.0.6998.205 Electron/35.3.0 Safari/537.36" version="27.0.5">
  <diagram name="Page-1" id="-O7KRiuBVeuAjS2cXDey">
    <mxGraphModel dx="1163" dy="727" grid="1" gridSize="10" guides="1" tooltips="1" connect="1" arrows="1" fold="1" page="1" pageScale="1" pageWidth="850" pageHeight="1100" background="light-dark(#FFFFFF,#FFFFFF)" math="0" shadow="0">
      <root>
        <mxCell id="0" />
        <mxCell id="1" parent="0" />
        <mxCell id="1fXFGu1g3uYbb_LP3-D0-1" value="" style="rounded=0;whiteSpace=wrap;html=1;fillColor=none;dashed=1;strokeColor=light-dark(#000000,#808080);" vertex="1" parent="1">
          <mxGeometry x="10" y="120" width="180" height="590" as="geometry" />
        </mxCell>
        <mxCell id="1fXFGu1g3uYbb_LP3-D0-3" value="&lt;font color=&quot;#000000&quot;&gt;Sources&lt;/font&gt;" style="rounded=0;whiteSpace=wrap;html=1;fillColor=#FFFFFF;strokeColor=none;dashed=1;fontColor=#000000;fontSize=24;" vertex="1" parent="1">
          <mxGeometry x="50" y="100" width="100" height="30" as="geometry" />
        </mxCell>
        <mxCell id="1fXFGu1g3uYbb_LP3-D0-4" value="" style="rounded=0;whiteSpace=wrap;html=1;fillColor=none;dashed=1;strokeColor=light-dark(#000000,#999999);" vertex="1" parent="1">
          <mxGeometry x="200" y="120" width="470" height="590" as="geometry" />
        </mxCell>
        <mxCell id="1fXFGu1g3uYbb_LP3-D0-5" value="&lt;font style=&quot;color: rgb(0, 0, 0); font-size: 24px;&quot;&gt;Data Warehouse&lt;/font&gt;" style="rounded=0;whiteSpace=wrap;html=1;fillColor=light-dark(#FFFFFF,#FFFFFF);" vertex="1" parent="1">
          <mxGeometry x="310" y="90" width="200" height="50" as="geometry" />
        </mxCell>
        <mxCell id="1fXFGu1g3uYbb_LP3-D0-6" value="f" style="rounded=0;whiteSpace=wrap;html=1;fillColor=none;dashed=1;strokeColor=light-dark(#000000,#808080);" vertex="1" parent="1">
          <mxGeometry x="660" y="120" width="180" height="590" as="geometry" />
        </mxCell>
        <mxCell id="1fXFGu1g3uYbb_LP3-D0-7" value="&lt;font color=&quot;#000000&quot;&gt;Consume&lt;/font&gt;" style="rounded=0;whiteSpace=wrap;html=1;fillColor=#FFFFFF;strokeColor=none;dashed=1;fontColor=#000000;fontSize=24;" vertex="1" parent="1">
          <mxGeometry x="677.5" y="100" width="145" height="30" as="geometry" />
        </mxCell>
        <mxCell id="1fXFGu1g3uYbb_LP3-D0-35" value="" style="edgeStyle=orthogonalEdgeStyle;rounded=0;orthogonalLoop=1;jettySize=auto;html=1;" edge="1" parent="1" source="1fXFGu1g3uYbb_LP3-D0-8" target="1fXFGu1g3uYbb_LP3-D0-19">
          <mxGeometry relative="1" as="geometry" />
        </mxCell>
        <mxCell id="1fXFGu1g3uYbb_LP3-D0-36" value="" style="edgeStyle=orthogonalEdgeStyle;rounded=0;orthogonalLoop=1;jettySize=auto;html=1;" edge="1" parent="1" source="1fXFGu1g3uYbb_LP3-D0-8" target="1fXFGu1g3uYbb_LP3-D0-28">
          <mxGeometry relative="1" as="geometry" />
        </mxCell>
        <mxCell id="1fXFGu1g3uYbb_LP3-D0-8" value="" style="rounded=0;whiteSpace=wrap;html=1;fillColor=none;strokeColor=light-dark(#000000,#994C00);" vertex="1" parent="1">
          <mxGeometry x="210" y="200" width="140" height="500" as="geometry" />
        </mxCell>
        <mxCell id="1fXFGu1g3uYbb_LP3-D0-9" value="" style="rounded=0;whiteSpace=wrap;html=1;fillColor=none;strokeColor=light-dark(#000000,#FFD966);" vertex="1" parent="1">
          <mxGeometry x="500" y="200" width="140" height="500" as="geometry" />
        </mxCell>
        <mxCell id="1fXFGu1g3uYbb_LP3-D0-10" value="HV" style="rounded=0;whiteSpace=wrap;html=1;fillColor=none;strokeColor=light-dark(#000000,#CCCCCC);" vertex="1" parent="1">
          <mxGeometry x="365" y="200" width="120" height="500" as="geometry" />
        </mxCell>
        <mxCell id="1fXFGu1g3uYbb_LP3-D0-11" value="&lt;font style=&quot;color: rgb(0, 0, 0);&quot;&gt;Bronze Layer&lt;/font&gt;" style="rounded=0;whiteSpace=wrap;html=1;fillColor=#fad7ac;strokeColor=#b46504;" vertex="1" parent="1">
          <mxGeometry x="230" y="150" width="120" height="40" as="geometry" />
        </mxCell>
        <mxCell id="1fXFGu1g3uYbb_LP3-D0-12" value="&lt;font color=&quot;#000000&quot;&gt;Silver Layer&lt;/font&gt;" style="rounded=0;whiteSpace=wrap;html=1;fillColor=#f5f5f5;strokeColor=#666666;gradientColor=#b3b3b3;" vertex="1" parent="1">
          <mxGeometry x="365" y="150" width="120" height="40" as="geometry" />
        </mxCell>
        <mxCell id="1fXFGu1g3uYbb_LP3-D0-13" value="&lt;font color=&quot;#000000&quot;&gt;Gold Layer&lt;/font&gt;" style="rounded=0;whiteSpace=wrap;html=1;fillColor=#ffcd28;strokeColor=#d79b00;gradientColor=#ffa500;" vertex="1" parent="1">
          <mxGeometry x="500" y="150" width="120" height="40" as="geometry" />
        </mxCell>
        <mxCell id="1fXFGu1g3uYbb_LP3-D0-14" value="CRM" style="image;aspect=fixed;html=1;points=[];align=center;fontSize=12;image=img/lib/azure2/general/Folder_Blank.svg;" vertex="1" parent="1">
          <mxGeometry x="50" y="200" width="69" height="56.00000000000001" as="geometry" />
        </mxCell>
        <mxCell id="1fXFGu1g3uYbb_LP3-D0-15" value="" style="image;aspect=fixed;html=1;points=[];align=center;fontSize=12;image=img/lib/azure2/general/File.svg;" vertex="1" parent="1">
          <mxGeometry x="103.26" y="220" width="32.47" height="40" as="geometry" />
        </mxCell>
        <mxCell id="1fXFGu1g3uYbb_LP3-D0-18" value="ERP" style="image;aspect=fixed;html=1;points=[];align=center;fontSize=12;image=img/lib/azure2/general/Folder_Blank.svg;" vertex="1" parent="1">
          <mxGeometry x="50.00000000000001" y="322" width="69" height="56.00000000000001" as="geometry" />
        </mxCell>
        <mxCell id="1fXFGu1g3uYbb_LP3-D0-19" value="" style="image;aspect=fixed;html=1;points=[];align=center;fontSize=12;image=img/lib/azure2/general/File.svg;" vertex="1" parent="1">
          <mxGeometry x="103.26" y="350" width="32.47" height="40" as="geometry" />
        </mxCell>
        <mxCell id="1fXFGu1g3uYbb_LP3-D0-22" value="" style="endArrow=none;html=1;rounded=0;fillColor=#f5f5f5;gradientColor=#b3b3b3;strokeColor=#666666;" edge="1" parent="1">
          <mxGeometry width="50" height="50" relative="1" as="geometry">
            <mxPoint x="30" y="475" as="sourcePoint" />
            <mxPoint x="170" y="475" as="targetPoint" />
          </mxGeometry>
        </mxCell>
        <mxCell id="1fXFGu1g3uYbb_LP3-D0-23" value="HV" style="rounded=0;whiteSpace=wrap;html=1;fillColor=none;dashed=1;gradientColor=#b3b3b3;strokeColor=#666666;" vertex="1" parent="1">
          <mxGeometry x="20" y="490" width="160" height="70" as="geometry" />
        </mxCell>
        <mxCell id="1fXFGu1g3uYbb_LP3-D0-25" value="&lt;font style=&quot;color: rgb(0, 0, 0);&quot;&gt;Object Type: CSV Files&lt;/font&gt;&lt;div&gt;&lt;font style=&quot;color: rgb(0, 0, 0);&quot;&gt;Interface: Files in Folder&lt;/font&gt;&lt;/div&gt;" style="text;html=1;align=center;verticalAlign=middle;whiteSpace=wrap;rounded=0;fontColor=#000000;" vertex="1" parent="1">
          <mxGeometry x="30" y="500" width="140" height="50" as="geometry" />
        </mxCell>
        <mxCell id="1fXFGu1g3uYbb_LP3-D0-26" value="" style="html=1;verticalLabelPosition=bottom;align=center;labelBackgroundColor=#ffffff;verticalAlign=top;strokeWidth=2;strokeColor=#b46504;shadow=0;dashed=0;shape=mxgraph.ios7.icons.data;fillColor=#fad7ac;" vertex="1" parent="1">
          <mxGeometry x="264" y="250" width="52" height="59.1" as="geometry" />
        </mxCell>
        <mxCell id="1fXFGu1g3uYbb_LP3-D0-37" value="" style="edgeStyle=orthogonalEdgeStyle;rounded=0;orthogonalLoop=1;jettySize=auto;html=1;" edge="1" parent="1" source="1fXFGu1g3uYbb_LP3-D0-27" target="1fXFGu1g3uYbb_LP3-D0-28">
          <mxGeometry relative="1" as="geometry" />
        </mxCell>
        <mxCell id="1fXFGu1g3uYbb_LP3-D0-27" value="" style="html=1;verticalLabelPosition=bottom;align=center;labelBackgroundColor=#ffffff;verticalAlign=top;strokeWidth=2;strokeColor=#d79b00;shadow=0;dashed=0;shape=mxgraph.ios7.icons.data;fillColor=#ffcd28;gradientColor=#ffa500;" vertex="1" parent="1">
          <mxGeometry x="534" y="250" width="52" height="59.1" as="geometry" />
        </mxCell>
        <mxCell id="1fXFGu1g3uYbb_LP3-D0-28" value="" style="html=1;verticalLabelPosition=bottom;align=center;labelBackgroundColor=#ffffff;verticalAlign=top;strokeWidth=2;strokeColor=#666666;shadow=0;dashed=0;shape=mxgraph.ios7.icons.data;fillColor=#f5f5f5;gradientColor=#b3b3b3;" vertex="1" parent="1">
          <mxGeometry x="399" y="250" width="52" height="59.1" as="geometry" />
        </mxCell>
        <mxCell id="1fXFGu1g3uYbb_LP3-D0-29" value="" style="shape=flexArrow;endArrow=classic;html=1;rounded=0;fillColor=#dae8fc;gradientColor=#7ea6e0;strokeColor=#6c8ebf;" edge="1" parent="1">
          <mxGeometry width="50" height="50" relative="1" as="geometry">
            <mxPoint x="190" y="279.55" as="sourcePoint" />
            <mxPoint x="240" y="279.05" as="targetPoint" />
          </mxGeometry>
        </mxCell>
        <mxCell id="1fXFGu1g3uYbb_LP3-D0-34" value="" style="shape=flexArrow;endArrow=classic;html=1;rounded=0;fillColor=#dae8fc;gradientColor=#7ea6e0;strokeColor=#6c8ebf;" edge="1" parent="1">
          <mxGeometry width="50" height="50" relative="1" as="geometry">
            <mxPoint x="340" y="279.05" as="sourcePoint" />
            <mxPoint x="380" y="279" as="targetPoint" />
          </mxGeometry>
        </mxCell>
        <mxCell id="1fXFGu1g3uYbb_LP3-D0-38" value="" style="shape=flexArrow;endArrow=classic;html=1;rounded=0;fillColor=#dae8fc;gradientColor=#7ea6e0;strokeColor=#6c8ebf;" edge="1" parent="1">
          <mxGeometry width="50" height="50" relative="1" as="geometry">
            <mxPoint x="470" y="279.05" as="sourcePoint" />
            <mxPoint x="510" y="279.05" as="targetPoint" />
          </mxGeometry>
        </mxCell>
        <mxCell id="1fXFGu1g3uYbb_LP3-D0-39" value="" style="shape=flexArrow;endArrow=classic;html=1;rounded=0;fillColor=#dae8fc;gradientColor=#7ea6e0;strokeColor=#6c8ebf;" edge="1" parent="1">
          <mxGeometry width="50" height="50" relative="1" as="geometry">
            <mxPoint x="630" y="279.05" as="sourcePoint" />
            <mxPoint x="670" y="279.05" as="targetPoint" />
          </mxGeometry>
        </mxCell>
        <mxCell id="1fXFGu1g3uYbb_LP3-D0-40" value="&lt;font style=&quot;color: rgb(0, 0, 0);&quot;&gt;Raw Data&amp;nbsp;&lt;/font&gt;" style="text;html=1;align=center;verticalAlign=middle;whiteSpace=wrap;rounded=0;" vertex="1" parent="1">
          <mxGeometry x="260" y="322" width="60" height="30" as="geometry" />
        </mxCell>
        <mxCell id="1fXFGu1g3uYbb_LP3-D0-41" value="&lt;font style=&quot;color: rgb(0, 0, 0);&quot;&gt;Business - Ready Data&lt;/font&gt;" style="text;html=1;align=center;verticalAlign=middle;whiteSpace=wrap;rounded=0;" vertex="1" parent="1">
          <mxGeometry x="500" y="302" width="120" height="50" as="geometry" />
        </mxCell>
        <mxCell id="1fXFGu1g3uYbb_LP3-D0-42" value="&lt;font style=&quot;color: rgb(0, 0, 0);&quot;&gt;Cleaned, Standardized Data&lt;/font&gt;" style="text;html=1;align=center;verticalAlign=middle;whiteSpace=wrap;rounded=0;" vertex="1" parent="1">
          <mxGeometry x="370" y="300" width="110" height="50" as="geometry" />
        </mxCell>
        <mxCell id="1fXFGu1g3uYbb_LP3-D0-43" value="" style="endArrow=none;html=1;rounded=0;fillColor=#fad7ac;strokeColor=#b46504;" edge="1" parent="1">
          <mxGeometry width="50" height="50" relative="1" as="geometry">
            <mxPoint x="230" y="360" as="sourcePoint" />
            <mxPoint x="330" y="360" as="targetPoint" />
          </mxGeometry>
        </mxCell>
        <mxCell id="1fXFGu1g3uYbb_LP3-D0-44" value="" style="endArrow=none;html=1;rounded=0;fillColor=#f5f5f5;gradientColor=#b3b3b3;strokeColor=#666666;" edge="1" parent="1">
          <mxGeometry width="50" height="50" relative="1" as="geometry">
            <mxPoint x="380" y="360" as="sourcePoint" />
            <mxPoint x="470" y="360" as="targetPoint" />
          </mxGeometry>
        </mxCell>
        <mxCell id="1fXFGu1g3uYbb_LP3-D0-45" value="" style="endArrow=none;html=1;rounded=0;fillColor=#ffcd28;gradientColor=#ffa500;strokeColor=#d79b00;" edge="1" parent="1">
          <mxGeometry width="50" height="50" relative="1" as="geometry">
            <mxPoint x="505" y="361" as="sourcePoint" />
            <mxPoint x="615" y="360" as="targetPoint" />
          </mxGeometry>
        </mxCell>
        <mxCell id="1fXFGu1g3uYbb_LP3-D0-47" value="Text" style="text;html=1;align=center;verticalAlign=middle;whiteSpace=wrap;rounded=0;" vertex="1" parent="1">
          <mxGeometry x="395" y="378" width="60" height="182" as="geometry" />
        </mxCell>
        <mxCell id="1fXFGu1g3uYbb_LP3-D0-49" value="&lt;font&gt;Object Type: Tables&lt;/font&gt;&lt;div&gt;&lt;font&gt;Load:&amp;nbsp; &amp;nbsp; &amp;nbsp; &amp;nbsp; &amp;nbsp; &amp;nbsp;&lt;/font&gt;&lt;/div&gt;&lt;div&gt;&lt;ul&gt;&lt;li&gt;&lt;font&gt;Batch Processing&lt;/font&gt;&lt;/li&gt;&lt;li&gt;&lt;font&gt;Full Load&lt;/font&gt;&lt;/li&gt;&lt;li style=&quot;&quot;&gt;&lt;font&gt;Truncate &amp;amp; Insert&lt;/font&gt;&lt;/li&gt;&lt;/ul&gt;&lt;div&gt;&lt;div style=&quot;text-align: left;&quot;&gt;&lt;font&gt;&amp;nbsp; No Transformations&lt;/font&gt;&lt;/div&gt;&lt;/div&gt;&lt;/div&gt;&lt;div style=&quot;text-align: left;&quot;&gt;&lt;font&gt;&lt;br&gt;&lt;/font&gt;&lt;/div&gt;&lt;div style=&quot;&quot;&gt;&lt;div&gt;&lt;font&gt;Data Model: None(as - is)&lt;/font&gt;&lt;/div&gt;&lt;/div&gt;" style="text;html=1;align=center;verticalAlign=middle;whiteSpace=wrap;rounded=0;labelBackgroundColor=#FFFFFF;fontColor=#000000;" vertex="1" parent="1">
          <mxGeometry x="220" y="352" width="120" height="229" as="geometry" />
        </mxCell>
        <mxCell id="1fXFGu1g3uYbb_LP3-D0-51" value="&lt;font&gt;Object Type: Table&lt;/font&gt;&lt;div&gt;&lt;font&gt;Load:&amp;nbsp; &amp;nbsp; &amp;nbsp; &amp;nbsp; &amp;nbsp; &amp;nbsp;&lt;/font&gt;&lt;/div&gt;&lt;div&gt;&lt;ul&gt;&lt;li&gt;&lt;font&gt;Batch Processing&lt;/font&gt;&lt;/li&gt;&lt;li&gt;&lt;font&gt;Full Load&lt;/font&gt;&lt;/li&gt;&lt;li style=&quot;&quot;&gt;&lt;font&gt;Truncate &amp;amp; Insert&lt;/font&gt;&lt;/li&gt;&lt;/ul&gt;&lt;div&gt;&lt;div style=&quot;text-align: left;&quot;&gt;&lt;font&gt;&amp;nbsp; Transformations:&lt;/font&gt;&lt;/div&gt;&lt;/div&gt;&lt;/div&gt;&lt;div style=&quot;&quot;&gt;&lt;ul&gt;&lt;li&gt;&lt;font&gt;Data Cleaning&lt;/font&gt;&lt;/li&gt;&lt;li&gt;&lt;font&gt;Data Standardization&lt;/font&gt;&lt;/li&gt;&lt;li&gt;&lt;font&gt;Data Normalization&lt;/font&gt;&lt;/li&gt;&lt;li&gt;&lt;font&gt;Derived Columns&lt;/font&gt;&lt;/li&gt;&lt;li&gt;&lt;font&gt;Data Enrichment&lt;/font&gt;&lt;/li&gt;&lt;/ul&gt;&lt;div&gt;&lt;font&gt;Data Model: None(as - is)&lt;/font&gt;&lt;/div&gt;&lt;/div&gt;" style="text;html=1;align=center;verticalAlign=middle;whiteSpace=wrap;rounded=0;labelBackgroundColor=#FFFFFF;fontColor=#000000;" vertex="1" parent="1">
          <mxGeometry x="370" y="370" width="120" height="330" as="geometry" />
        </mxCell>
        <mxCell id="1fXFGu1g3uYbb_LP3-D0-52" value="&lt;font&gt;Object Type: Views&lt;/font&gt;&lt;div&gt;&lt;span style=&quot;color: light-dark(rgb(0, 0, 0), rgb(237, 237, 237));&quot;&gt;&lt;br&gt;&lt;/span&gt;&lt;/div&gt;&lt;div style=&quot;text-align: left;&quot;&gt;&lt;span style=&quot;color: light-dark(rgb(0, 0, 0), rgb(237, 237, 237));&quot;&gt;&amp;nbsp; &lt;/span&gt;&lt;span style=&quot;&quot;&gt;&lt;font style=&quot;color: rgb(0, 0, 0);&quot;&gt;&amp;nbsp;No Load&lt;/font&gt;&lt;/span&gt;&lt;/div&gt;&lt;div style=&quot;text-align: left;&quot;&gt;&lt;span style=&quot;&quot;&gt;&lt;font style=&quot;color: rgb(0, 0, 0);&quot;&gt;&amp;nbsp; &amp;nbsp; &amp;nbsp; &amp;nbsp;&amp;nbsp;&lt;/font&gt;&lt;/span&gt;&lt;/div&gt;&lt;div&gt;&lt;div&gt;&lt;div&gt;&lt;div style=&quot;text-align: left;&quot;&gt;&lt;font&gt;&amp;nbsp; Transformations:&lt;/font&gt;&lt;/div&gt;&lt;/div&gt;&lt;/div&gt;&lt;div style=&quot;&quot;&gt;&lt;ul&gt;&lt;li&gt;&lt;font&gt;Data Integrations&lt;/font&gt;&lt;/li&gt;&lt;li&gt;&amp;nbsp;Aggregations&lt;/li&gt;&lt;li&gt;Business Logics&lt;/li&gt;&lt;/ul&gt;&lt;div&gt;&lt;font&gt;Data Model:&lt;/font&gt;&lt;/div&gt;&lt;div&gt;&lt;ul&gt;&lt;li&gt;&lt;font&gt;Star Schema&lt;/font&gt;&lt;/li&gt;&lt;li&gt;&lt;font&gt;Flat Table&lt;/font&gt;&lt;/li&gt;&lt;li&gt;&lt;font&gt;Aggregated Table&lt;/font&gt;&lt;/li&gt;&lt;/ul&gt;&lt;/div&gt;&lt;/div&gt;&lt;/div&gt;" style="text;html=1;align=center;verticalAlign=middle;whiteSpace=wrap;rounded=0;labelBackgroundColor=#FFFFFF;fontColor=#000000;" vertex="1" parent="1">
          <mxGeometry x="510" y="340" width="120" height="330" as="geometry" />
        </mxCell>
        <mxCell id="1fXFGu1g3uYbb_LP3-D0-53" value="" style="shape=image;aspect=fixed;image=data:image/png,iVBORw0KGgoAAAANSUhEUgAAAgAAAAIACAYAAAD0eNT6AAAACXBIWXMAAA7DAAAOwwHHb6hkAAAAGXRFWHRTb2Z0d2FyZQB3d3cuaW5rc2NhcGUub3Jnm+48GgAAIABJREFUeJzs3XecXVW5//HPtEx6T0ggQEggBELvBAgYEQSki4ICikpXULFd9YcICKhXDRYErkEBsSIiCFxAEQg1EFpCDSmkAOl1Jm3K74+VuQzDlHPO8+y19znn+3691kuEOWs/p+21zirPAhERERERERERERERERERERERERERERERERERERERERERERERERERERERERERERERERERERERERERERERERERERERERERERERERERERERERERERERERERERERERERERGR7KpIOwARKVlDgF2AnYFxwE5Af6Av0A/os/nv6oAVm/93EfAG8BrwOvA8sCRq1CIiIpKXHsARwE+AGUCzQ2kCXgQmAcduvoaIiIhkwMHALUA9Po1+Z2UVMBk4FI1gioiIRNcTuAh4meQb/Y7KLOA8oDbh5yoiIlL2ugEXAG+TXsPftiwEvoqmB0RERBJxKjCb9Bv8jspswjoBERERcTAMuJP0G/hcy53ANom8EiIiImXiVGAp6Tfq+ZblwAkJvB4iIiIlrQq4hvQbcmu5gbBuQURERLowAHiQ9BtvrzJl83MSERGRDowiZOJLu9H2LtOBrRxfJxERkZKxLTCX9BvrpMpcYIzTayUiIlISRgBvkn4jnXSZj3YIiIiIADCIcPBO2o1zrDIdrQkQERHhDtJvlGOXKWh3gIiIlLFDSL8xTqv8zOH1EylaOk1LpLzdDJyZ5AUG96nlkJ2Hsus2/RizZV+2GdKT/r260bu2GoD6jY0sW7OB+UvrmfnOGp6fs4InXl/C0tUbkgwLQifgJELmQJGyow6ASHmbRdj656pvzxpO2n9rThm/Dbts04/KivxuNc3N8MLcFdzx1HzunLqAlXUbvUNssQLYnbA4UKSsqAMgUt7qCEf7uhjcp5YvHj2GTx0ykh7dqlzqrN/QyG1T5nLDAzNZtHK9S51t3AmcmETFIlmmDoBIeVsN9LFWUl1ZwXlH7sAXjx5Dr81D+97qNjTws7tfY/K/Z9PQ2ORd/ceAe7wrFckydQBEytuzwN6WCrYf1odJn9uL3UfG2Vk3fd5KLrjxGeYurvOsdjawC7DOs1KRLPMZoxORYjUCOLTQB0/cdQt+/+XxbDO4l2NInduiX3c+MX5bZr6zhlnvrvWqdgCwBHjaq0KRrNMIgEh52xZ4FeiR7wNPnzCSKz+1O1WV6dxGGpua+a/fv8AfH3vLq8qFwGgg8e0HIlmgEQCR8rYKaAQOz+dBnzxoW354xp5UptT4A1RWVHD4bsN5d+U6Zsxb5VFlX8JugGkelYlknToAIvI4sCU5rgU4fcJIrjljj7y39iWhogIm7jqMVxas9poO2An4pUdFIllXmXYAIpK6ZuCcsyaOurdPj5oO/6hPjxquPG03rj49G41/i6rKCq793N6MHOqyDmF74GCPikSyLjvfYhFJzcyfH9W3e/fauWvXNwy446n5PPn6Ut5aWkdlRQXbDO7J+LFDOHafrejXs+MOQtqmz1vJcVc/6rFF8DfA2Q4hiWSaOgAiwrwbj/9aBRU/TjsOqyv+OoMbH3zTWs0qYDjaEiglTlMAIkJFc8Vn0o7Bw1eOHcuQvt2t1fQDJjqEI5Jp6gCIlLl5N560LxXsknYcHnp3r+bcI7b3qOpDHpWIZJk6ACJlr/m0tCPwdPqhI+nfq5u1mg97xCKSZeoAiJS5Cjgi7Rg89aqt5rh9t7JWsxsw2CEckcxSB0CkvOwCTAJmAGsrKqj78GX/GnfZn6fz+sLVKYfm5+QDtrZWUQns6RCKSGYpEZBIeegG/ByYDBwIDN3872qWrdnI83NWcNuUuSxbs5FDdhqSWnpfL8P69+CWR+awbmOjpZqpm4tISVIHQKT0dQPuAz5BJ1t/m5vhhbkrmDZrOcfvO6KoOwEVFfDSWyt54+01lmpmEV43kZKkKQCR0vcz8tjW9thrS7ji9hkJhhPHnqMGWqvY0SMOkaxSB0CktO0CnJvvg255eI7113PqRm/R21rFMI84RLJKHQCR0vYFCpjqa2xq5k+PzfWPJqLttjCfDdDHIw6RrFIHQKS0faTQBz766hLPOKLr19OcC0AdAClp6gCIlLZtCn3gwmX1nnFE17t7tbUKdQCkpKkDIFLaCv4ZvHZ9A5sazCfrFbPi3QYhkgN1AERK21rLg+s2NHjFEd3a9ebYi3sVpEgX1AEQKW2mDsDKuk1ecUS3qn6jtQp1AKSkqQMgUtpMHYC5S0wPT9WcRXXWKor3yYvkQB0AkdK20PLgWe8Wbxs4a5E59gUecYhklToAIqVtpuXBz81e4RVHdM/NWm6twvTaiWSdOgAipc3UiD3x2hKam71Ciae5GZ58Y6m1GnUApKSpAyBS2l63PHjpmg28OLf4RgGem7OcZWs2WKt5wyMWkaxSB0CktD0NmDbz/+2p+U6hxPO3J80xNxFeO5GSpQ6ASGlbDpiO9rtz6gLqNzQ6hZO8ug0N3P2sae0jwIvASodwRDJLHQCR0veI5cEr6zZy25S5TqEk79aH57CyzpwD4FGPWESyTB0AkdL3b2sFNzwwsyiyAq5d38CND87yqOpfHpWIZJk6ACKl736Mw9mLVq5n0j9N6wmj+Oldr7Jk9XprNSuABxzCEck0dQBESt964A5rJb/51yymz8vutPj0t1by24dme1R1B2CeQxDJOnUARMrDH60VNDQ2ccGNz3gcsuNuzbpNnH/jMzQ0uSQt+JNHJSJZpw6ASHn4Dw6JbeYuruPim6bR6NPQumhoaubiydN4a4k59z/AqzismRApBlVpByAiUTQThrU/Zq1o1rtrWbxqA4fvNoyKCntgFs3N8K3fv8Bdz5i3/bX4NvCcV2UiWaYOgEj5mAF8HuhjrWj6vJUsWFbPh3cfRmVKvYDGpma+/YcX+eOUt7yqXAx8DsjeHIdIAtQBECkfjYRpv494VPbKglW8umA1H951GN2q484mrlm3iQtufIY7p7oe2Pdd4DHPCkWyLOUBPBGJrBZ4GRjtVeHIob247px92XWb/l5Vdmr6Wys5/8ZnvOb8W7wB7AJs8qxUJMs0AiBSXhqBucBpXhWurNvEnx97ixVrN7Hv9oMSGw2o39DIL+57g6/+7jmWr3XfpfdZ4DXvSkWyTCMAIuXpXuAo70qH9O3OeUduz6cnjKRXbbVLnXUbGvj9I3O5/oGZLF1tPuGvPf8Ejk2iYpEsUwdApDxtRTjwZlASlffv1Y3j9xvBSfuPYM/tBua9W6C5ORzpe8dT8/nH1AWsqk9sZH4JsBvwblIXEMkqdQBEytcJwN+TvsigPrWM33Ewe44ayPbDerPN4F4M7NON3ptHCNZuaGD5mo3MW1rHm++s4bnZK3jyjaUsW5PIr/22TgTujHEhkaxRB6D4DQUmAOOAscAYYADQH+i9+W/WEnLBrwBeJ8x1vgxMIWx9kvL1a+C8tINIya+AL6YdhIhIPvYBfgpMB5oISV4KKU3AS8BPNtcp5acbIfNdoZ+hYi0PAj6LFEREEtYH+BrwCsndFF8GLsEhUYwUlf6E9z7tRjlWeY0wSiYikmkDge8Dy4l3g1wGXIZukuXkANJvmGOVB9D0p4hkWAVwJrCI9G6Uy4CL0aFRpa6CsBUu7YY5ZrnE5ZUTEXG2PSElado3yZYyBcfMcZI5F5D+Zyx22QDs7fHiiYh4OZGwWj/tG2Tbsgr4ZILPW9IxFqgj/c9XGmUmWu8iIhlQSViNn/ZNsavyYzR/WipqgGdI/zOVZrnJ/CqKiBhUE25Ead8Mcy2/JzQeUtyuJP3PUhaK27kIIiL5qKE4F2DdjToBxWw84dz7tD9HWSgrgJGmV1NEJE8VwO9I/wZYaLkN7RAoRr0Ix9+m/fnJUnkadWhFJKJimPPvqvzQ/VWRpE0m/c9NFsvllhdVRCRXnyD9G55HaQJOcn5tJDknkv5nxqu8QjjIx6u+BsK5GiIiiRlNOJwn7RuoV1kBjHJ9hSQJQwnH3qb9ebGUdcBfgMMJU2jVwOOO9c8noSOSRUQqyFaSH6/yCNoemGUVwL2k/znJtzQBLxK2n34E6NHOcxuJb4f69txfVhGR3H2O9G+qSZUzHV8n8ZWlbH+NwJrN/7weWALMAqYR8vT/Ajgf+BAwOMfn90nnGM/O8boiRUu/2OIaCLxO7je1nNX27sOYCUcwav8JDBu7C/233JruffsBsH71Kla+PZ93X5vO7Kcf5Y1HHmBD3VrvECCcW7AjIWugZMeOwHNAT6f6mrHdOx4DDnGKpbWbgLOc6qonHJH9qlN9IpmjDkBc3wcu9axw0MjRHPL5L7Pr0SdR07290dEP2rR+HdPv+RtTJl/LsrdmeYYD4fld4V2pFKwGeILQmHl4FDgQ25a5y4Hv+YTzPr0JowhjnOp7EdifcG6ASMlRByCevsBcnI7YrenenYlf+g4HnnEulVXVBdXR2LCJJ2+5nod+eRUNG9zuccsIc7KJDDFI3q4AvutU1xLgG8BvjfUcRlgzkoS9CR2ebk71XQt82akukUypSjuAMvIl4DiPigZtO5rPTr6TnT58NBWVhefhqaysYps992fUAYfxxiP3s7G+ziO8noROwJMelYnJeMKwuFeypk8TRhLGG+qoJ3wXGl0i+qB3COsKjnCqb3/CeQkzneoTyQyNAMTzCrCTtZLhO+3GmTfeTq+BvssIVi96m1vP+wSL3njFo7oZwK4eFUnB+gAv4Lc9czLwBcIQ+16Geh7Er3HuSCVwn+N1FgO7E7ZQipQMpXGNYx8cGv9B245OpPEH6LvFlpz+6z/Te/BQj+p2Afb0qEgKNgm/xn8WYRh8ILCHsa6H7OF0qQn4DKHh9jAUuBn9YJISow5AHJ+yVlDTvTunXXtLIo1/i37DtuK0a2+lulutR3U6YS09JxK2m3poAM4grOk4DPs9I0YHAMKv9bMIOxY8HAFc4lSXSCaoAxDHR6wVTPzSdxi6g3kQoUtb77EvE875ikdV5ucsBRkG3OhY39W8t55jorGulYQphFjuBX7uWN8PCIsMRUqChrSS15J+teDXetDI0XzpricLXu2fr431dUw6am/WLjWNoDYBWwBLfaKSHFQA9wBHOdX3DHAQsGnz/7euY/kHcII1qDzVEk76292pvjcInQDtcpGipxGA5E3A2NE65PNfjtb4A3Tr2YvDzv+GtZpKdLBKbOfj1/jXE4b+Wxr/LbGvY4k1/N/aBsJ0VL1TfWPwHVUQSY06AMnbxfLg2t592PXo+Ift7XH8qdT26m2tZpxHLJKTsYR8+V4uIWStbGEd/od0OgAQsvm5zGttdhYO63pE0qYOQPJMWcnGTDgi5wx/nrr16MkOE8zT+Dt6xCJdqgFuxS/V773ADW3+3YeMdS4CXjbWYXEj8DfH+q4jJLwSKVrqACTP1AEYtX96o+gO1/ZKySqduxS/VL9LgM/zwdXzHzbW+5926oztbMJxvx76AbcRjiMWKUrqACTPtG9v2FjTDILJFmPMI/jJ7VmUFuOB/3Ks7wI+mPBmNLCtsd5/Gx/vYQUhm6FXFsLxwP9zqkskOnUAkmeaSB+w1TZeceRt4NbWez59POKQDvUBbsEvpfdk4PZ2/r3H/P9/HOrwMAW4yrG+76DFrlKk1AFInqkRrO2dXhta27uvtQp1AJJ1LeHXuYfZdLxQztoBmEfIJpgVlwOPO9VVRZgKGORUn0g06gAkr5xfYx02lZzjCavRPTQApwNr2vlvFYQMgBb/Mj7eWwNha+AKp/pG4Jt8SSSKcm6cYllnefCGte3dk+PYsHa1tYqNKNlUEoYBv3Gsr3W2v7bGbb6eRVrb/zozn5A3wctJwDmO9YkkTh2A5Jla8OUL3vKKI/9rzzdfuyfwFmGoegIaEfBQQTji12uB5TPAFZ3891Ka/2/rz8BvHev7GQ6HfonEog5A8t62PHjR6zO84sjbuz7X3hq4CHgEWAhcTzhYpcaj8jKUZLa/9lg7AK9i/A4k7CJCel8PPYE/EtIPi2SeOgDJM+07nv30o15x5H/tpx7xrnIL4FzgfsJWs98BxwLdvS9UonbEN9vf13h/tr+2qoBDjdfI4vB/a2sJWf02OtW3O/BDp7pEEqUOQPJM2c9ef/h+NtbXecWSs43r6pk5JdG1WwMJZ7bfBSwD7gbORDsHOlJN2PLnle3vfsJoTGf2Bvobr5OF/f9dmUbYzuflIkLHViTT1AFI3kuWB2+sr2PGfX/3iiVnL/3zrzE7Hj2BjwE3E1LG/p2wKt3a+JSS7wH7OdW1BPgsXWfms6b/bSJM/RSDnwAPONVVQVikaV08KZIodQCS94S1gimTr6WxobNpWl+NmzYy5TfXRrteGz0IR8beSugM3Ad8ARiSVkAZ4J3t7xw+mO2vPdb5/+eB5cY6YmkmjEiZzsBuZSihQ6t7rGSWPpzJW0jn86xdWvbWLJ68pavRWj+P/+5XrFgwN9r1OtEN+CjwP8A7hPnkC4Gt0gwqsiSy/d2Zw9/VAgcbr5X1+f+23iXkVvA6s+AI4KtOdYm4UwcgjnusFTz0y6uY/+KzHrF0at4LU3n4uh8lfp0CVBGGpH8JLCCsrbiM0j9wKFa2v7YOwL7eoNg6ABBOQvy5Y31XAfs71ifiRkla4jiAjhOt5Kz34KGc++d/029YMj+A1yx+l+s/OZE1i3MZHc6UV4C/An/Z/M+l4nhy+7WeiyZCByrXbSXfJ5wyWKiNhPS4aw11pKUWeArYw6m+N4G9MOYEEfGmEYA4ngZmWitZu3Qxvz//k6xe5L+tetW7C7n5nJOLsfEH2JmwSO7lzeVy/G7eafHO9ncVuTf+YJ//n0pxNv4AGwhbA+ud6tueMJIjkinKzBZPDXCktZK6ZUt44a4/M2K3fei/5dYOYcH8F57hd58/gRUpZh10NISwd/08wnzudoSGyOsc+BgqgD/h14mZRthi2ZTj3/ciDINb7g+/BR42PD5tSzcXr+18exJ+BEx3qk/ETFMA8QwA5gD9PCqr7lbLhHO+wvjPfpFuPQqbqm3ctJHHf/crHr7uRzRs3OARVpYtAO7YXB7D70z4JFwA/MqprnrC8HM+C1E/Sth9YXEYxbMFsDO3Ayc71bWK0Kmb61SfiIk6AHFdAXzXs8Leg4dy2PnfYI/jT825I7BxXT0v/fOvTPnNpFL51Z+vxYS59b8R8tTH22PZtR2B5/BL+HMB8Os8H/Mj4OuGa9YTEj2VQq9yAPAiIaW1hycII1QNTvWJFEwdgLgGEPKOex3k8n+69ezFmEOPYLv9DmH42F0ZMGIbuvcJgw3r16xixYJ5vPPqS8yZOoU3Hn0wleyCGbWCkI3wDkIimPUpxlJDaCD2carvXkKCpXy3tT1LyAJYqAdwmO7KkAmEHQ1eU6ZXYFtgKSJF6lzCDVkle6We91IS9+3oDUzQlXnG21lZQmGZ6PoTfp1arv3NAq6bdZfj9940Ys+yKCJFqBKYQvqNnXeZQti2djMh+1va8VhLPSEl8RnESUk8HnvD27qcUGAcJzpce98Cr51l1cDj+L0/8wjTJCJSZkYTVqan3ch5ldXAqFbPr2XHw42E+fa047OWDYRFcWeTTEriPoS94l7xWrYP/sJ47RWU7u6ikYTn5/U+3R41ehHJjFNJv2HzKp/s5HlWElLKXkvYipd2rNbSSNhFcDF+KYlvcoxvFrYTFV8xXj/+yVVxfRzfz9PZccMXkaz4Mek3aNaSz3a1CkJWxB8TGqq0Y7eWJsKiva8R8g0U4gTHeBoIUwmFGk54TpYYLjJcv1h4dtjqgJ3ihi8iWVBBOJM97YbMUqYRDu0pxDhCPv9nM/A8PErL+QQ75/j8hxIOoPG6/uU5Xrcjn3aIYZwxhmLQC3gNv/dtOuEUTBEpM5WEo2/Tbrws5QqH12EUYVj9Mey/QrNQZhGmPQ6m/e22FcA/Ha83jbD2wmKyMYZFHTzXUrQXYW2I1/s3KW74IpIV1YTUr2k3WoUW69BzW6MIw+pPUjqdgR8Rpj9aGsgLHOuvIyQQsppjjOMPDjEUk0vwew+bgKPjhi8iWVEB/D/CIrO0G6xCGznL4rOObAV8iZCxz3ObXFplPnAdodH2qvOCgl/d94xyiOMLDnEUkwrgfvzex0UUlrtBRErER4FlpN9QFVImJ/B6tDaIkKTnbnyHX4u5/C8+w+5nO8RS6ELIYjYUeAe/9/MBdEqrSFkbTZgLT7txKaScmMDr0Z4BhM7AnYSkPWk/7zRKodn+2vMHYyxznOIoRkfjO1X1tbjhi0jWVBKOtF1C+g1NWo1SrnoDnwD+DKwxxF5spdBsf21VYP8Vm/ToT9ZNwu993YDtLAYRKRH9gP8h/cYmn3Iv6a0G705ppSSO0eCOc4jn047xFKNa4Hn83t/XCR1bESlzF5N+g5Nv8ViYZtWSkvgGwgKrtF8Tr7KW96detvqSMZ4mQhKhcrcTvos7b4obvohk0W0k15i8Qtiith9woWO9XlvTvFQBhwE/pzRSEjcQjqj9IvaUxH83xvKy8fqlxGMxZetyatzwRSRrrAfF1AFvAU8T5skvA04GtmhznQrC8L3XzesZ7MlpktCSkvhHlEZK4kZCSuJLyH8lfhX2A25+kec1S93t+L23KwmHEIlIGRqEfYXxR/O4nnd6Wo8sgUkr55TE+zpcL9bOj2LRH5iL3/v5NNnsSItIwo7GdvNoInQi8nG88ZqtSyNwaL5POkXllpL4m8b6G9C59u05BN/EVdZzHkSkCF2G7cYxs8Drep54NhvoW2AcadqW9zoDxZqhsXWZwwc7A9ZMds8U9tKWhcvxe+8agQ/FDV9E0nYPthtHofnZ++A7P17s+8S3Iiy4+w+lkZJ4HmHvunXV+o8sL2qJq8Y3odc8NNoiUjYqsCcCuthw/fH4NnanGGLJkoEoJXFLOdL4Wpa6rfFN7f23uOGLSFpGY79hHGCM4UqHGFrKEkpvv3h/QsfmFsorC2EzofPTy/4SlryP4/u6nx03fBFJw6nYbhQbgR7GGGrwXR2fZpbApA0jbNtKu2GOVR71ednKgueamjpC0iERKWE/w3aj8FqgtT2+v26zkCUwCZNJv1GOWS5zedXKQy/gNfxe++nYO/cikmHWBUTXOcZSylkCPZxA+g1y7PJjYIjHi1cm9sZ3zcikuOGLSCw12I+5/YxjPBXAP43xtC7TgG6O8aXJO3lSMZVGQkf1YmCE9YUsA1/D77VvAo6NG76IxLA39huE9zxhOWYJ7Ip3x6jYS0sWwjGG17SUeX9eFlN6C2tFyt552G4Mq4DKBOI60RhX69JA2GpYzM7H7/WoA35IaETTbsg9ynPAd9CCtbaG4Xs65f0k810XkZRYVw3/O8OxtS6zCEmHitGO+B7/en6ruscSGs9pjvWnWV4kbF9TTvvgaHxTTX8tbvgikqQZ2G4IVycYm7IEhoZsKn6vwT10vD1yO8IN/gmKPyXxVHS6XQvrLp/WZQNh2lBEilwf7Df6ExKO8SB8swQW24lyV+D33BcThoVz0ZKS+CGKNyXxnM3Po9zVAs/j97q+DvSO+gxExN1E7DeDLSPEWa5ZAr1TJH+8wDiKOSXx/xb4nEvNDvjm2Lgpbvgi4s16ROv8SHGWY5bAPsCb+D3n3zjF1R84A7gT+/bRWOVwp+de7M7G93U9NW74IuLpb9huADEPDBmL70K4rGcJ/A1+z/VNkhmy7Q18AvgT2T6f4NYEnnuxuh2/13UlWmchUrQWYLsBfCNyvJ5ZAtcB4+KGn7Pj8Xuem4ADI8TcnZAs5gZ8t555lJkJPu9i0x+Yi99r+zTacSFSdLbE/uX/UOSYKwjD9143r2fI3s1rGPajmVuXy+OGD4TkPGk3+q1LXYHPYzDwMeASQgbCYwjrIYrdIfiuLUnjMyYiBtac8o2ks69+OL4NZJayBHp3cKaSTgfnCwXGm1RZkWf8WxGmDda3U1cDIffFhcRZAJuU7+P3+jYAE+KGLyIWV2P70s+IH/L/KdUsgRfg97zSPAjpDznGGKtMySP2jxCyW+ZSbyPwOGGEYLs8rpEF1dgPAWtd5lEaoyMiZeHf2L7waW8DKrUsgUlm+4upguwdWPSdHGM/gPZ/9edapgHfJixYLQYjCaMjXq/z7VGjF5GCVJL7r5yOynnRo36/UsoSWENYj+D1XDrL9pe0XXKMMVZZQ25HCdfiu+1yBmFufI/cXrbUfBLf1/ucuOGLSL52xv5F3zN61B9UKlkC08r2l4SLOogr19JEmJJpSUlszWOfa4N0hvE6nZU3CYcv7U828094jqbV0f6hTEOBkwif9T8SOrxzgeXAxs1lOTCbMJLyB+BS4OTNjxURJ5/F9iWvJzur572zBMZuPL2z/SWdmrkrd2KL/+U29VlSEl+ZR9yxjlqeB1wLHApU5RFfknoT0vt6PccXCCMq+wD/DbxmrK8JeAn4yeY6RcTgOmxfyMfih9yhYs4S6D2N4ZXtr1BV2OeUf9FJ/UMI2ezuo/OUxAvJP+1xGrkLFhHyJhxB+h3qvfBN87zcsa625WXCwsu01+2IFCVrg/nT+CF3qlizBE52jDmpbH/52Bf788h1GqY/8Cngl8ADhJz/vyAMM3crIPa00xovB34HHEdIqpSGSzqJL4tlGXAZMCCB10KkJHUnzLdZvnhZzAHumSUwxha6UtzKaD1booH0buaLc4wxRllNSK98CnE7dRWEjlTazz/fshg4i2yurxDJlAOxf+FGRY+6a8WUJdA7219Wkhndj+15PBs/5P/zQCdxpVnqgb8TFin2T+zZv2cY2UvlnGuZAoz2f0lESsdXsH3JFscPOWdD8d2DnkTDWoHvgrNppD9/DGHYfS225/LD6FG/J2vZC9srDYT1NxeT7GLVj2LffZFWWUXY2igi7bBmabsnfsh5yfrQeqlk+2trAvbn89HoUb+nJ2ELWtoNWD6fzYcIOyS2SuD1+FkGnqOl/BhNCYh172ThAAAgAElEQVR8gDXZyffih5w3z8V1nlkCi3WxYi6sueU3AL2iR/1+h+G7Ej5WaSLkTPgafimJa4HnM/DcLOVWsjE6JpIJg7AP7R0VPer8ZTFLYCll+2vPFGzP59H4IbfrROxTGWmX5wjpj9tLyJMP7w5rGuVu1AkQAULjbfkyNRE6EcUga1kCiz1hUWd6Yf/lfFnsoDuxA2HhXSPpN2DW8jJhLUuhmTvPzsBzsJZbyFZnWSQV38P2RZoZP2STrDS63p2RtLP9tfVR7M8pi8fJjgS+DjxJ8S6Ka11mAT8iHHqUT4P4XAZit5Y0F5iKZIJ1m9zv44dsUg08jd9N5H7y/yXRC3jDMYa0s/2150fYnlMdYc45y4YAZxKGlK15NLJQFhN+GR9L50PkR1ManZ9mQpIokbJUgX3v+cXRo7bbnnAinNdNJN+Fd6V2bHF7pmF7Xv8bP2STQbzXGSjGRYNty1Le6wy0zqK4Fb75KtIuK8hmDhORxI3C/gU6MHrUPtLKEpj1LYkeBmKfK/9m9Kj9DCB0Bu4E1pF+I2cty4GbgeOBhzMQj3d5BK0HkDJ0GrYvzkagR/SofSSRfKerfPND8c2odrnlBUjQSdifW6mc8NaD8Cv6FkJCmrQbO5X2yxkdvYGSDPW40vdTQhbAQk2juG/UwwlHig52qu9K4P918N8qCNv0vLZMPkv49b/JqT5PvySMsBRqJeE9afQJJzO6A0cSOkjHogNrAKiu7cHQMbsxaNRY+g7bmh79B1PTvScAm9bXs27lUla/O59ls19l8Rsv0bBhfRJhLCKM4q1KonL5IHUA0vcYYTV6oX5NthLPFOJE4A6nuhoJK9efaOe/XUhoGD3UE45qfd2pPm+vYNtv/g+yt6vBWw0wkdAZOIEwOlRWeg3agtGHHM3wXfejqia3wxobN23k7elPM3vKfdQtW+Qd0qVk5wyNkqcOQLpqCL1dyxD+WYTjSovdZOBzTnXNBvYgLDJsMZYwWtLT6RoXAtc51eVtOLAQ2/f7IsIxvuWiCjgYOJnQIR2RbjjJqqrpxpiJJzDywI9QUVlZUB3NjY3MefJB3njoTpoa3AbBlhG2ea71qlA6pg5AuvYiNEoW4wi/9opdH+AF/FYD3wR8fvM/1xD2jO/tVPd9wDGEecss+jT2raG7EJLVlKMKYH/CyMDJlNgK9V6DtmCv0y6kz1CfowpWzp/NtD/+kg1r3UbuLyFMjUrC1AFI13mEIfxCrSbMYTb5hJO6gwirgauc6juJkDnuSkIKVg9LgV0JpxtmlXU05V1gS7LbwYltD0JH4CRg55RjMek7fBv2O/OrdOvlu2t1/eoVPHPrJNYsWuBR3QzCd0wSVtjYj3jZz/j4Zymdxh/gceAax/puJNy4v+VY5zlku/GHMK9t8R/U+Lf2AmFh6TjCuorvErLwFZVeg7ZIpPEH6N53APuefjG1vft5VLcLhadIljyoA5AuawfgaZcosuX7hI6Nh8HA7fiNKNxEGFHIslGEOVSLhxziKFWvAT8gTCeN4v0piTOrqqYbe512YSKNf4vu/Qay12kXUlld7VHdaR6VSOfUAUhPH+yngk31CCRjNhH2A9enHUgbs4Evpx1EDqy//kEdgFzNAf6bsBV0G+BLhNGTzG2dHDPxBLc5/84M2Ho0oycc41HVRzwqkc6pA5CefbC//qXYAYDwK+sbaQfRSiOhU7Kmqz/MAGsHYC6hsyP5WUjYYjqRsAvjbEIq5Y1pBgVh6H/kgfHa01Hjj/SYCtgNv9wg0gF1ANJjHf5fALztEUhGXUdYbZ8F19B+XoGsqcDeAdCvf7slhMOhjgK24P0piaMbfcjRBW/1K0RVt1p2OOxYazWVZPMkypKiDkB69jc+vhTn/1trBj5LyA6WpufIbrrftsYRGhyLf3sEIv9nJXArIbfAIOC4zf9/dYyLV9f2YPiu1t8a+dtqj/FU13a3VjPOIxbpmDoA6dnX+PhnXKLItsXA+Slev56wpz71YdwcWX/9NxPmsCUZ6wgnFZ5J6KgdRzjgZ3lSFxw6ZrecM/x5qupWy5AddrNWk+vhXlIgdQDSsSX2TGOlOv/f1t8Jq+/T8HXCeoRiYe0AvAq84xGIdGk9oTPwWWAY4XyCG3Ae8Ro0aqxndbGvPcYjDumYOgDpOMD4+CbsGQSLyUXAzMjXfABbkqbYqrDPmWr+Px2bCJ+38wg/Dg4Bfgi8aa2477CtrVUUfu0tzNfWIsCEqQOQDuvw/6tEmkPMiDrCmQextlctBT5DcSXD2Qv7yXbqAKSviXBA2LcIv4BN22F7DBjiEVNBeg40t9/JJS0QQB2AtFgXAD7lEkVx8c4S2JkLyH62v7Y+bHx8IyENs2RHM1BrqcBhIZ7h2uZzt9QBSJg6APFVYj+UphwWALbnMpJf+zAZ+GvC10iCdf7/eRJcjCYFy3SGwYSpfUqYXuD4xgJ9jXWUywLAthoIQ/NJZQmcDXwlobqTVEs4SMlCq/+zqc7y4IYN673iKODa5q9pKnkTyok6APFZN+WuI5yWVa5eI6zO99ZI2J5VDNn+2joAsI63av4/m0wdgPrlS7ziKODaS61VFON3saioAxCftQPwHGHVcDn7Nf5ZAq8hrDMoRtbh/43AFI9AxN1Cy4PXLJrvFUfeVr9rvrbpuUvX1AGIz9oBKNfhf+mYtQMwFeMvTUnMXMuDl81+1SmMQq79irWK9HovZUIdgLh6EA65sFAHIGQHPMq5zm9hn0dPQ2/snUql/82mMYDpCL/Fb7xE46b4iSwbN25g8czp1mpe9ohFOqYOQFx7ADXGOsq9AzAW+HEC9VYBt1B8W48OBqy5XjX/ny0TgH8Q8n2YOqUNG9bz9vT4x4YsfOkpGjdusFbzokcs0jF1AOKy/lJbQnkf1VpDOEjFvMG4A6OAaxOqOynW4f96Sv9gqWJQDXySsMX3EcI5AS7359lT7qO5MVYOLWhqbGD2FPMSnWaK4wTOoqYOQFzWBEDluv+/xfeAfRK+xlmEk9uKhbUD8Bhg/qkmBetL2Hr6JvAnEvh81y1bxJwnH/SutkNzHr+f+hXm3QevU3zJuIqOOgBx6Qjgwo0nzNPHcCMwPNK1LAYCexrr0PB/OoYRElvNBX4KbJvkxd546E5Wzk9+8HDFvDeZ+fBdHlW5VCKdUwcgnkHAdsY6ynX+vw9h6L8q0vUGEzICVkS6XqEOw/4dVgcgrr2A3wPzCCNa1vMbctLUsIlpf/wl61evSOwa61Yt57k//YqmhgaP6u7wqEQ6pw5APPtha1CaKd8pgEmE+fmYjiKcCZBl1uH/lYS8EpKsCuAYwm6LacCnsS8GztuGtat45tZJiXQC1q9azrO3TmLDWpczyl6lfH/sRKUOQDzWBYCzgGUegRSZE4HPpXTtHxF2HWSVtQPwCPFOWCxH3YGzCdvZ/on9/TJbs2gBj19/BSvmz3Krc8W8N3n8hitYs9gtb8+NFNdJnEUr60OcpeQe4GjD4/9A+OVQToYB00n3XPBpwIFkL/vicEKmNMt3+GLg5z7hSCuDCaNHFwJDU46lXZXV1YyecAyjxh9JVbfCDhxsamxgzuP3M/Phu7yG/SHsdBqN0gBHUZ12AGVEGQDzUwHcRLqNP4STG78HfDflONqaiL0Dr/l/X2OArxLOlOiRciydampoYOZD/2De1IfZ4bBj2WqP8Tl3BBo3bmDhS08xe8q91K8w5/tv62rU+EejEYA4RhGG8C3GA086xFIsLgB+lXYQmzUCh5KtswImY5saWUQYRdBQq90E4BLgYxTptGpVt1qGjtmdQduNpe/wrek5YDDV3UO6jYb19dSvWMrqd+axbM5rIbugPclPe+YTOlHpHWEokoBTCTfaQstGwnxiuRhLyE1vec28yyyylSVwDrbn84f4IZeUasL3+hnS/2yWSvl8Xu+ASJH4KbYvxrPxQ05NDdm9qd6U4PPOxyjsz+UL0aMuDS2Je+aS/uexlMr9aERaStTj2L4cv4wfcmp+gN9NZQlwMtDgWOcpyT31nJ2N/XnE3lZZ7FoS9ywn/cay1MpiiiPxlkjeagj51i1fkM9Ejzod4/FtrD++ud4rHetcQvo3qz9iew5zo0dcvPYgHBK1kfQbylIsTYRzD0RK0l7YvyQ7R486vj6EeXavG8vkVnXXEKZRvOq+l/SGKysIOdK9Xhv5oJbEPQ+RfgPZtjQS0uQeSlgxn3Y81nJVju+JSFE6H9sXZCVFurI4Tzfhd1OZzQcX7G1P2F7kdY0LXZ997nbJI8aOSrnlk8hVLWEL3wzSbxjblvWEkYjWPwZatsqmHVuh5SY07y8lzvoF/Vf8kKM7Eb+bSgNhKqE9Fzpep450sgReVGC8LaWJ9KcwsmYIcClha2TajWLbsoiQh2JIB7HXEEYE0o4z33Ib5fHDRsqc9ddEqQ+RDSPMq3vdWK7o5FoVhOF7r2s9S/yc7ncaY34lcrxZtiNwPfY1OkmUVwmLPXPZ/lsD/C4DMedabiOFsxBEYutDmLOzfFlOiB51PN4N8jN0fWMZjm+H40rLC5CnKmCFMd5y2lHSkUOBf2D/biZRHiIkFMp3aLwCuCYD8XdWGoFvFvDcRIrSROxfmi2jRx2P95D8jjle93jH67ZkCYxhP4d4T4wUa9ZUAscCT5B+Q9jeZ+hu4ACH53kC4dCwtJ9T27Ka8L0TKRvfxPalmR8/5Gi8s/3le3TvZMdrx8oSaP08NQIDI8SZJX0J+fnnkn4j2LasBH4MbO38nLcBHs3A82sp96G8E1KG7sD2xbk9fshRVANP43eDKSSLWC/gDccYYmQJfMAYYzlllMxy4p63N8c2IKHnDuH7cArwVsrP88wEn6NIps3H9gX6ZvyQo/BOzDOswDgOwjfxUJLD67XYR0x+lGB8WbEXYZFZFhP3PEM4PyDmKay9gcuJ3xFaRhh9ESlLW2L/Eh0WO+gIksr2V6hiyRJ4qEN8H00otrRVAIcT5tGbSL+hb10agQcJ6w/S1J34OQ5Kef2SSKdOwn7jKLUetPew+28cYsrCdEQuvm+MawPh12ApKbbEPVkxjjAF4Zkds72ShXMzRFJhTdM5I37IicvqwjvvBYlJZAmcYoxpSgIxpaWYE/dkzTDgKODbwF+Bx4DX8NlJMCni8xDJFGsecY9ft1lyAn432UZggnN8FzjGt46QstdLL8IveEtMlznGk5bRwLX4dta8ykzgYqBnYs8+vluwvSbltOhU5P9UAquwfXnOjR51cobi+2vt8gRirAD+6RjjNKCbU2xHOcTj3WGK6WDgL/iuHfEqjxGGuqsSe/bpORfba7OJONtjRTJlHPYbyx7Ro05GEg1rUmlEh2I/aa918coS+GNjHHWE+fJi0pK450nSb+TblpbEPfsn9uyzweM+dnj0qEVSdhb2G3bMrUJJSivbX6GymCVwmjGO+x1iiKUPYSh9Luk39G3LasIUxDZJPfmMqcC+FuCy2EGLpO3X2L40pbJgy3tx3fmR4vZcrDgb226Ogdhz1hdDPolyT9yTVXdje+0ejB+ySLqsv9h+Ej9kd8Wyva49WcoSaN1O2gzsa7h+0vYgLDbLYuKe5wjbDMv55LpvYXsN11A6o5kiXeqO/Wb2yehR+/sBfjfiJBPsdMQ7YVGhe6J/abzuCrK3QE2Je4rHwdhf072jRy2SkvHYvzDbRY/aV9ay/RUqC1kCXzFe9+8FXDMpStxTfGoJ21otr+3F0aMWScnF2L4si+OH7KoPIUmP1415ctzw36eGkL/d67ncywenMYYRzhD4AfAnYCowjzAXvsnhmhd5vRgGQwjJcbKauOdSiidxTxoew/Ya/zl+yCLp+AO2L8s/44fsKqvZ/gqVRJbA/QgH83iuM+ioeCYkyteOwPVAfTtxpV1eAc4mTNlJ567B9lovjB+ySDqsv34vjR+ym6xn+yuUZ5bAmGUR8RZOtqbEPaXlWOyv+6joUYtENgj7oqYjo0ftoxiy/RXKO5lRrPKHJF6MDihxT+kagH0r6pnRoxaJ7GhsX5ImQiei2BRTtr9CeWcJjFGWE9akVCbwerRQ4p7y8DK29+KG+CGLxPU9bF+SmfFDdlFs2f4KdSLpN2qFlIeB7Z1fi60JKYpXZuD5tS1zga9Sesdpp+kGbO9JKZ5uKvI+92D7ktwWP2Qz70VyF8QNP2+eixxjllXAyQ7Pfy/C5zSLiXueAU5FiWeScCa296YJ6BE9apGIlmD7khTbftkY2+SyxnubY8zSRPjVnu+UQAXwMexHXCdRGoF/4HPmgnRsFPb3KqsjeyJmo7F/QQ6IHrVNsWf7K5R3oqPY5TZyW2OhxD3S2kJs75n3NJRIZpyK7cuxgeLak3wQvo3giXHDN7uC9BtBS7kL6NbBc1PiHmnPXyj8fdsE9I4fskgcP8V2Y3s2fsgFK6Vsf4Xynv5Io/ye90+5KHGPdOZ0Cn//Hk0hXpFoHsd2g/tV/JALVmrZ/gr1K9JvGK3lGsL8+V3Y93onUR4CjiH7a0PKQR9CqvJC3sdTU4hXJIoa7L+aPhM96sJ4boVrIMynF6NPkn7jWKplI2F0Yq+c3w2J5Szyfz8fRZkXpYTthf2mt1P0qPM3DPtOh9blirjhuxkDrCX9hrLUykrCLoWtc38rJAU/I/f39A2KZ3GvSEHOw37jSzJbm4cKwjY9r5v9M2Qv218uKoFHSL+xLKUyF/gKStxTTL5E1/k/7kaLNaUM3ITtBviv+CHnrVyy/XXlfNJvMEulKHFPcdsCuAx4ClhG2Mk0E/gtcFhqUUnOtLDGxwxgnOHxVwPfdoolCWMJ+fl7OtV3IXCdU10x9SUsWhzsXXHv6mo+PGwYBw0Zws59+zKiZ0/61YQBklWbNrGgvp6XV63i8aVLeejdd1nb0OAdQixNhHMjfoJWhoukSh0Auz7Yh/BPBO70CcddDfAEsI9TffcRVnU3O9UX0xXAdz0rHNW7NxfssAPHjRhBj6rc1kmta2zkHwsWcN3MmcxZu9YznCStIyTu+SlhXlhEUqYOgN2HCFuVLLYC3naIJQlXAt9xqmspsCvhVL1i0w+Yj9OWxe5VVXx9p5343OjRVFcU9jVsaGriN7Nm8d+vvcaGxkaPsJKwmLBd8jrC+y8iGaG5N7v9jI9fQHYb/4OAbznWdw7F2fgDfBanxn+73r35n/32Y8e+tjVv1ZWVnLfDDuw3aBBfmDqVJevXe4Tn5VXCavFbCWl7RSRjsr7yvBhYOwBTXaLw14cwZOu1f/cm4O9OdcVWQVi3YLZLv378/ZBDzI1/a3sNHMg9hx7KWMc6DR4iHBw0Dvgf1PiLZJY6AHal2gGYRDgBzMNs4MtOdaVhX2AHayXb9e7N78ePZ1BtrUNI7ze8Rw9uPvBAhnRPJVPuJsIBQ3sDH+a9Y7FFJMPUAbDZEhhhrONpj0CcnQB8zqmuJkL2sDVO9aXh49YKaququH7ffRNp/Fts2aMH/7PffnSrjPa1XgP8nHDK2+nAc7EuLCJ26gDY7G98fCNhe12WDCMM3Xq5iuLf7nW8tYJv7LQTO/fr5xFLp/YeOJAvjRmT9GXeAr5K6PxeDMxL+oIi4k8dABvr8P+rZOuXcQVhrt5rn/uzwOVOdaVlC0Lq34KN6t2bz40e7RRO187efvukpgKeJSTu2Z6wwG91EheRonc4cDPwJuFch5WEkc7vE75PkhHqANiU2vz/BcBRTnXVE4aFNznVlxbzYUUX7LBDwVv9CtGrupqv7OiWaLGJcFLgoYS1EH8mHOIk0tZQQrrwB4EzgdGEPCL9CPfKSwnrgS5KK0B5P3UACleJPTlOljoAY4EfOdb3deB1x/rSsrflwb2rqzluhHWZSP5O3mYbelWbd/k+Tjik6niKfxpHkjUCeJKuf0D0BK4lLDKWlKkDULix2A8vyUoHoIawX9sr1e99wK+d6krb9pYHf3jYsJwz/HnqWVXFxC3Mo60LUNY+6VoV8Cfy2zV0MWFxsKRIHYDCWYf/64HpHoE4+B5+qX6XEnYQlMo2MNPk/UFD0jsMzeHaIx3CkNJ3KiFpWL6uAXo7xyJ5UAegcNYOwPNkYy5V2f46N8zy4J1TTM7jsOtgS484pORdUODjhuKww0YKpw5A4UphAaCy/XWtl+XBW/cyPdxk657mGR39OpOu9MG2HVodgBSpA1CYHsBuxjqykADoWvyy/c2huLP9dcTUCPaxL8QrWN/NxwkbpNd7kWKxFbYfEId4BSL5UwegMHsQFs5ZpD0CcCJ+i3AaCVv+spTTQOxKZR2HJMe6v3UYfj9CJE/qABTGmgFwCeEXc1qGATc61nc18IRjfVmyzvLgNQ3pLfNYvcmcgkEdOunKW9g7igd7BCL5UwegMMU8/69sf/lZa3nwvLo6rzjSuLYy/UlX6oFXjHUUsoNAHKgDUJhi7gAo219+Flge/MqqVV5x5H/t1eb2e5lHHFLyHjc+XiMAKVEHIH+DsM9ZpdUBULa//M23PPjxpUu94sj/2kuWWKtQEiDJhbUDsBMw0CMQyY86APnbH9vCl2bgGadY8lFNOKDDK9vfA5ROtr/OvGp58L/ffZe6FNYB1Dc28p9Fi6zVvOYRi5S8x4yPr0DTAKlQByB/+xofP4t0hlYvwz510WIp8BnKY5X485YH1zU0cPfChV6x5Ozv8+d7dDxMnR8pG7OBt411qAOQAnUA8leM8//K9lc4c76G62bOpKGpySOWnGxqauK6mTOt1TQDUxzCkfKgdQBFSB2A/BVbB0DZ/mwWYlzlPGftWn4za5ZTOF274c03PXYAvAQsdghHyoO1A7APUOsRiOROHYD8jMK+fS52B2ASfok2ZlOa2f460wOHhvC/X3uN55Yvdwinc88uX87PXnOZuv+XRyVSNqzrAGqxT69KntQByM8BxsdvAl7wCCRHJxBO5vPQRMgcWE7JYSYS1gAcZq1oQ2MjX5g6lbfXmfIKdWrR+vWcN3UqG32mG/7oUYmUjRew3xs0DRCZOgD5sfZQX8SYWS4Pw4D/cazvKuBRx/qybEvgL8C/gR29Kl2yfj2fefJJ3kmgE/D2unV8+oknWLR+vUd1M4BpHhVJ2WjEvl5mvEcgkjt1APJTLPP/yvZXmCrgIsLq91OSuMBrq1dzzCOPMM1xOuDZ5cs55uGHed2e+KfFXV4VSVmxrgM4CPvZApIHr4Vh5aCGcHqe5RCgXxFGAZJ2IXCxU131wJGU/oKwvYF/EKZMEl2MVN/QwB3z59Pc3MxuAwZQU1lYP3xTUxO/njmTS557zvvMgf2B5aSTr0KKVzVwpuHxPYC/Es5KkQjU28rdXtiHRXcm+b3VYwlxeiX8uRC4zqmuLOoLXElIkRy9Qzyke3e+suOOnLzNNvSsyu3y9Y2N/H3+fH71xhvMr69PMrxbgfMInUCRrvQGVhA6AoU6F9+DyqQT6gDk7jxsme9WEdJdJrkhvIZwKt8+TvXdBxxD6Sb8OYWwS2LLtAPpVV3NxC22YPyQIYzr14+te/akX00YbFq1aRPz6+uZsXIlTy5dykOLFsXMLvgScDLwZqwLSlF7ljCaVqhbCEnGRDLlt4SGsNDyYIQYf2CMsXVZAgyPEHMaRgH34vdalXpZTegEiHRlErbPWryEGSJ5eBnbB/sHCcc3Hmgwxti6fDzheNNQQ1gbsYb0G9ViK02ENTCW4V0pfadg/6yNiB61SCf6ELa5WD7UxycYXy/CyW1eN/vfJBhrWg4hbG9LuyEt9vIwYYupSHuGYf+MJbIDR6RQE7F/qJOcZ77JIb6WMpvQ4SkVAwi/XK0dOJX3ygLgwHzeBCkrs7B9vibFD1mkY/+F7QM9L8HYTjDG1ro0AhMSjDWmCsKWpMWk32CWYtkEfDPnd0PKyc3YPlvPxg9ZpGN3YPtA/zWhuIYCi4yxtS6lkuxnDCGXfdqNZDmU3xOmoERanIPtM9VAaY1CSpFbgO0D/Y0EYqoA/mmMq3WZhi3JURb0AC4D1pN+w1hO5RVgp67fHikTO2P/TB0ePWqRdmyF/cN8WAJxXegQV0upwzHnfUqOwj73WEhZCJwG3JbCtbNUVgDHdfkuSTmoAJZh+zxdFjtokfachO2D3Ij/cNZYQqPtdfM+3zm+mIYTkofEbvAagRsImQQh3PQuSyGOLBVtFZQWd2H7LMXImyLSpauxfZCnO8dTQ8jR7nXTvpfizAjZcnDPKuI3dM/ScbbFTxB+DafdGLctqwi5KGLE9i9gSAevj5SHb2L7DK1BHUnJgH9j+yBPdo7nSmM8rcsSinNP9z6ERjiNRvQiuj4zYFvC0cmx4+uoTAG22xzb9oQDqZK+5jzCoUJSng7C/hmypBQWMavE/gvzHMd4yj3bXy/gGnxfg1zL3cDWecTasg3xnRRibSnLCJkP2x432J2Q7Cnp62urYPmqBdZh+/x4nWgqUhCP1ax7OsXSB99Fbt4jE0k7hbDgLnYjOhs42hB3X+D72BdF5dvwXwr06yK2C4ANEeK5Bb/TKaV4TMH2uflL/JBF3vNZbB/gOvzmsSYbY2ldZlE8+2zTOrhnI3AVfg1Xb+ArhC1zScU8gzBFkc97uz9huD7p1/NFwvSDlA/r+qm344cs8p7rsH2AH3OK40RjHK1LA2EqIeu6Ad8mnEUfu/F/FBiX4HPbE/gx4ajdJmOs0wk32gMM8QwhrLpO+nXVVsHy8jHsn5lR0aMW2cy60OynDjEMIyzW87oJX+EQU9ImYD99sZCyFPgccXdFDCZ08C4l5BKYShihWU4Ynt+0+Z/nA08BfyS8h8cCWzjGUUUY8bB2SLoqTZuv09VCSil+A7F/ns6MHrUIIavcRmwf3k8aYyi3bH9pHdzTRJin1tY1OIbQ4Uj6NX+Y4tyBIvmxnsB5Q/yQRXy2sYw0xlAu2f7SPLjnDZR2tK1YWwV1qmDpux7bZ+Tl+CGLhAVblg/uYuP1yyXbX1oH99QTMvfVJv4Mi4t3gokAACAASURBVJO2CoqHM7B9PpqAQdGjlrL3B2wf3LsN164GnjZev3W5n+xl+0vz4J6HyO5oSNacQ5ytgjpVsDSNwv7ZODZ61FL2rHvu/5/h2j8wXrt1WULIl58lE4HXiN/wv40WFRVib2AOyb8/OlWwNM3H9rm4Jn7IUs4GYV+9emSB1y7lbH9ZObhH8jeYMJKU9Hu1Cjg50nOSOP6M7TPhtZ1aJCdHY/vAFjpv1YuwKM3rZvqbAmJIQiVhKDmNg3ueRznpvVQRpm2S3qWhUwVLy0XYPg/rCWtSRKK4DNsH9o0Cr3uT8bqty2yyke1vT3zXM+Ra1hIWl2m/uT9tFZR87I39s3Bw9KilbFlTz95awDVPMF6zdWkkJNNJUzEd3CP52xbfY6k7KtoqWPyqgNXYPgfaKSJRVGDPvHdRntccCiwyXrN1uTzfJ+3sWOLkl29brAf3SH60VVBy9QC2z8Bd8UOWcjQa+w0rn7zspZTtL82De64lHLgj8Z1JnDMbtFWweH0P23u/nA8eay3i7lPYG6MeeVyvFLL91RDO7l6TZ7weZQrJHtwjudFWQenM4djfe33PJXE/w/YhnZrHtUoh298h2PN9F1KWEzod+lWQHYPQVkFpXy/CVI7lfT8netRSdp7A9iH9ZY7XKfZsfzq4R9pTQZiv11ZBact6uurN8UOWclKDfS4z10xzxZrtTwf3SC60VVDamoTtvZ4VP2QpJx77VcfmcJ1izfang3skH9uirYLynlOwv9cjokctZeN8bB/OlXQ9J12M2f50cI8USlsFpcUw7O/zKdGjlrLxW2wfzgdzuEaxZfubCLzuGHOuRQf3lBZtFRSwH7I2KX7IUi5exvbhvLKL+osp258O7hFve6GtguXuZmzv7bPxQ5Zy0Af7yuXjO6m/WLL96eAeSZK2Cpa3c7C9rw1k44wTKTETsd90tuyg7mLJ9qeDeyQGbRUsXztjf1+1E0jc/Re2D+VbndSd9Wx/OrhH0qCtguXH46yVy2IHLaXvDmwfyr92UG/Ws/3p4B5J07Zoq2C5uQvbe5nLYmuRvCzA9qH8ejt1Zjnbnw7ukazQVsHy8k1s7+NaNK0jjkZgv7kc2k69Wcz2p4N7JKu0VbA8HIT9Pdw7etRSsk7C9mFs5IMrU7OY7U8H90jWaatg6asF1mF7/y6OHrWUrKuxfRhfalNf1rL96eAeKSbaKlj6pmB77/4SP2QpVQ/h20BnJdufDu6RYqWtgqXN+qPrnfghSymqxJ70pvU51VnJ9qeDe6QUaKtgafoY9vdsVPSopeSMw/5B3GNzXVnI9qeDe6TUbAtMJfnPr7YKxjMA++iOzgoRs7OwfQjrCMOHWcj2l9bBPe+gL6MkS1sFS491QfIN8UOWUvNrbB/CRzfXk2a2Px3cI+VCWwVLx/XY3qOX44csxWQIcATwJeBXhAxSLxGOpFwObMB+o/gJ/tn+Lsjx+VUBF5HOwT3PAvvkGKeIp/2Jk73yRWD7SM+pHJ2B7f1pAgZGj1oyqyfhRL5JhIa+ieRvEqfjm8r0XnLL9rcPoRGO3fCvInQ6dHCPpGkIoUOf9Od9BXBcpOdUbkZhf3+OjR61ZEolcDBhKDqNX8K3OdaVS7Y/HdwjEmirYPGbj+29uSZ+yJIF3QkH48wifkPYung2xCd28Zw/ASxM4Tnq4B7JsuMIv9ST/h48iJJaefsztvdkSvyQJU09gUuAt0m34fcukzt5zqOA+1KIaSNw1ebXXCTLtgdeIPnvxDzCGgTxcRG292M9yjlSNo4lTp7w2KWjbH8tB/esTSEmHdwjxUZbBYvP3tjfj4OjRy1RbYv9DOmslgbCwUFtTSBsc4kdz1Lgc/gdOywS2/nESYR1Cxods6oGVmN7H9QZK2HHEycVaFqlbbY/HdwjYqdTBYvHA9jeg7vihyxJqyU0hDG28qVVWmf708E9Ir50qmBx+B621385Omq8pAwEniD9BjrJ0jrb3zhCRsHYMdQD3wa65fCeiBSjKuAHJP9DomnzdZQfI3+HY3/9tV6pRAwnZOBKu4FOupyPDu4RiSXmqYJbxHlKJaMXYWGl5XU/5wO1StHZEXiL9BvnpMu9hBvS7BSuvZCQT0Ck3GirYHZZs6neHD9k8TSC8mj8m4HHU7hmA/ALdHCPlLeehMYi6e/besIon+RmErbXe1b8kMVLf8pj2D+t8jz6RSLSmk4VzJZTsL/WI6JHLWa1pPOLuByKDu4R6dh+6FTBrBiO/XU+JXrUYvYL0m8oS7Ho4B6RrmmrYHa8ie01nhQ/5OKWdra3k4Hbk75I78F9GTl+J0bsOZrBo4czYOvB9BzUh249QwrpjfUbqF+2hhXzl7L0zbdZ8MJs5j7xKmuXrk46tCTMAb5IWGgoIl2rIiTk+i+SvSc2A1cDlxISfcn73UyYminUNMIx6ZKjNDsA2xJW5PZPovIe/Xux6/EHsPvJB7HV7tvl/fjm5mYWvjCHl/7+BNP/8RTrVtYlEKWrTcB/A1cS5jZFJD/HERqhRO5JrfwL+BTh+G95zzmEY90L1UDIpLrWJ5zSl2YH4C7C4T6u+g4bwPhzPspepx36f7/wrTbWb2DaHx7hiRvvY82ilS51OptCWHH8ctqBiBS50cDfgN0Tvs58wpz10wlfp5jsjP0e9hFCB0tykNbisOMJ6R/dVFZXst9nDueTN36RkfvvSFVNtVvdVTXVbL3XaPY9fSJV1VXMnzaL5qYmt/oNVhCGLS8gpBAWEZsVwO8Ii9L2SvA6/YDPEo7cfjzB6xSTpYR7mWXXxBxCMibJQRodgJ6EBWpuw2yDRg3jjFsvYc9PHEJ1N7+Gv62qmipGHjiWMRN3Z84Tr6Q5LdBMGKo8DvjP5v8vIj4aCCOUiwi/KJO6qVQS0uCOJixE3JTQdYrJIdgylDYAtzrFUvLSOEDhfGCkV2U7Hbk35/zzewwft61XlV0avsu2nHvPZYw9Ys9o12zlVeBDwFmEHrOIJON6wrHc8xO+zhnAk2irINhHQw4guQ5byYk9AlAL/Ano41HZHqcczEk/O4ea7jVd/7Gz6m417HzMvtQtXc3b0+fGuOQ64CrgdJT1SiSWhYRjsncn2QZ6C8KUwExCJ7+cfc7w2G6E0Zt3nGIpabE7AOcAp3pUtPenDuP4H51FRWV66xgrKivYYeLurF20kndmvJXkpf5DWDD5N7R9SCS2dcBtm/93Isktnq4lLAwcSFjIlomFRpEtBr6G7Vf8K2hxZU5idgAqCb/+B1gr2unIvTnhp19ItfFvUVFRwQ4f2o1Fr85n6ax3vat/G/gC8A1gmXflIpKXxwlptY8Cuid0jQpC2u7xwP9Sflt6G4GPAtsY6lgD/NUnnNIWcw3AocAoayUDRw7lhJ9+nsqqNJYvtK+yqpKTJp3L4FHDvKpsAm4EdgL+4lWpiJjdTZgOeCbh6xwOPAccmPB1sugx4+MPcYmiDMRsRc+wVlBVXcUp111Abe8eHvG46tarlpN/cR5V1S6DKncC5wJFmYpQpMTNAw4jrA1I0gjC9F+5nSpoXQg4DIcfm+UgVgegB3CStZIDzz4y6mr/fA3fZVv2P+sjHlV9hOSGGEXErh74zOayLsHr1ALXUV6nCj6Off3DwR6BlLpYHYAjCIkvCtZ32AAmXHScUzjJOfQrx9N7iOmpQtglcbhDOCKSrFsIowFJbxX8NPAE5bFVcAX2nRAHeQRS6mJ1AD5krWD8OR91S+2bpNpe3Rl/7kc9qjraoxIRSdxUQtbApFPQ7kZYe5D9X0J21nUA6gDkIFYHYKLlwT0H9Gav0w71iiVx+3zqQ/Tobx6tm+ARi4hEsZSwev0qks3M2Z+wRugHpJfKPQbrOoCdCdsppRMxOgBDgF0sFexy3P5F8eu/Rbdetexy3P7WanYmnFUuIsWhEfgO4ayTJE8NqwC+TdgmOCTB66TJOgJQgUYBuhSjA7AXxsQZu59cfO/j7ieNt1ZRAezrEIqIxHU34Vz6FxO+zuHANELegFIzh5AHxaL4Go7IYnQALAc70GtQX7bcbaRTKPFstccoeg/ua61mrEcsIhLdLEJe+skJX2drwq/lbyZ8nTRoHUDCMt8BGHXwTlRUpJ/xL18VFRVse4C5/Ta9diKSqvWETJ5JbxWsBq6h9LYKWtcB7Iu2U3cqRgdgjOXBW+0x2iuO6EbsaY59B484RCRVMbcKPk7pbBW0jgDUEqZipAMxOgCm/LiDRw/3iiO6waPNqYEHe8QhIqmbCuwJ3J/wdXYnrAs4OeHrxPAiIa+/haYBOhGjA9Db8uCBI4d6xRHdwJFbWKtQB0CkdCwDjiFs4Utyq2BfwmE4xb5VsBF4yliHOgCdiNEB6GN5cPe+Pb3iiK5HP/N03BDgdMJOiuwdgCAi+WoEvou2CubKug7gIJI7vrnoZb4DUNu7eNdwdLPH3g24lTCkV0/YFvMgcC1wDiHfdSkt+hEpFzpVMDfWdQADCTlVpB3VaQcgeRm+ubQ9J+Ad4GXglVb/+zxQFzU6EcnHPELGz18QdgskZQTwKGHk4YcJXicJTwEN2Nqqgwj3RWkjRgdgLYaUjBvrNtCjf3H2UzauXR/rUuoYiBSn9cDZwBTgepKb6mvZKrgr4ajxYrkH1AEvYFvNfxBwo084pSVGy7oaQwdg3co6j7z6qVi3KvXvWHsdg0ZClq3WHYMXUA9ZJE23AK8BtxOS+yTl04TU7B8H3kzwOp4ew9YB0NHAHYixBmCt5cHL5y7yiiO6jMZeRdgnfDzwX4TkITOAhYQhQtOaDREpWMupgg8mfJ2WtQfFcqrgE8bHjwK29Aik1MToALxrefDS2aaHp2rprKKKfUvgCsKCoV1TjkWkXC0FjiL5rYLFdKqgdSEgaDtgu2J0AN6wPHjB87O84ohuwXPFMsL2PtsDD6EshCJpadkqeCywIsHrtGwV/DdgTlqSoHcIZytYqAPQjhgdgNctD57z+Ks0NyfZEU5Gc3Mzc596Le0wCjWYMCdZ6P7ZCmAccPTmMs5Ql0i5ugfYg+S3Ch4KPEu2twpa8wFoHUA7YnQATK1g3bLVvP3iHK9Yolnw/CzqllmzWKbqAPKfI+wDfB9YQFhXcM/mMoOQB/17GDNDipSZeYQG+paErzMC+A9wfsLXKZS1A7A7uvd8QIwOwPMY57Je/Jt1DUh8L91RfDG349N5/O2uhNzdl9L+gputgMsIOw/2NEcmUj7WEU4UPB/YkOB1aoHrCJ2NrKVgta4DqCb8qJFWYnQAlgDTLRVMv+spNtYn+bn3tbFuAzPunpp2GB5y3XqzHWHdwHY5/O3WwL8onRPLRGK5npA4KOlTBc8grLzP0nf0VcJZChaaBmgjRgcAQuNQsHUr65j2h0e8Ykncs7f9h3UrU88B4CGXoxgrCQeP5HNw0UDgNgpfF1BJSO95LHAkYZ60eHNGi+SuXLcKNmPfDqiFgG3E6gD8x1rBEzfex8a67I8CbKhbzxM3/m/aYXjJZRHDicDeBdS9H3BCno/pRVhjMI+QuOguwmEnzxPyTcwkbG26ijB9sSc6RElKT7luFbSuAzgApb9/n1gdgAcJGQELtmbRSh659h9O4STn4Z/dydolq9IOw8uMHP7mNEP9p+bxt+MI8VxKWE/QVnsJjp4jdGLUMZBSU46nClrXAfQmjGzIZrE6AOsIKS5Nnpr8AO/MeMshnGS8PX0uT/826ZG5qP6Zw9/sZ6h//xz/bjQhV/rIAq6hjoGUsrsJa3VeTPg6hxNOJc31O5uEZwlnJ1hoHUArMfdmHwo8bK1k4MihnHvPZdT2ztZ9ev2addx4zGUsf2uxR3VXADWEee5xhMV1sTprLZZtvm5X0wDrCauHC7GBrufuKwjznpZc4Plo76yEVwjbWddFikEkXz0IiwTPTPg6G4CvAL9O+DodmYKtEf8r8AmnWIpezA5ABeHwiVHWisYesSefuP6LVFbFbhPb19TQxJ/P/QWv/+sFj+peB3bi/XN7PTb/u5YOQdIdg2bCYSF35PC3iyl8aHARMKyLvzkxxziSpo6BFIPzgEkU3inP1a2br1Wf8HXauhr4luHxb9P+FGJZip2d7Tyceo57n3YoH7v6M/+/vXsPzrI68Dj+DZcEkiDhWgSMUArowlJRB2u1iG1xqOsFquKutLp1pezWllZb163j2mlru+t2RWrLrHVFratYrCKoW121Iiy10lUCEuRmuF/kkvsVyJt3/zhkhkaT903OOc95nze/z8wZZ5zkvOd98/Ce33OecyEnJ+wGc8lkkhfvfJx1S1e7qvKbwKI0f9ZHMEgA8zHrgdOxGvhcF19rFTAtxc/8Bri+i/VHQcFAMs0UzJ1usefX2UD0pwpegXnsYWMMsMNBW2Iv6t4zD/PBOzmZ6dy/nsoVP70p2EhAS3MLL931a5ed/yHMxWm7hrCrwWAD8G1Mx5yu7wE/61oz+S6wIMXP7MHv8ai+KBhISIOBJcB0z69Thdmk6AXPr9NqIGZvGZsv/Zvwv7NiLIS4fb4duN9VZWddNplZD8yNfE5AU20jz3/nYVfD/q2+DTzossI2Tg0GZ2OG7nMxB228DrxN55cV9cPcAQzt5O8dwUzOS7U6pIHsmpinYCBR6YlZNnsXfr/rk5ih+Xsw17dvpZgbmq56GJjnqC2xFiIA9MV86aWza1xaBo4aynWLvsHpE890VWWHDmzcxbO3/oerCX+tdgPj8bvVpy/XAUtJ/3rqzByDI3Ruk6G4UjAQX67E3PEWeX6d14EbMP9mfXoIuw58EzDRUVtiLdQDdBfPcf5Mz149ueBr05l220xyC/zMfzlW38SbDyxn7WOv0dLc4rr6WZglaXE1HzOcn2rDkARmpCPdeQ62s37jTsFAXBgDPIf/dfB7MTcEaz2+xlexG8JPYm4qKtw0J75CzqBbjlmb7VThkP58dt4Mzr/hUmdB4Hj9Md55aiVv/epl6o5a7WfUnhfw8FkEMA0zA7m9L5n1mM6/M5MmnD4yyiIKBtJZ2bJUcDT2k/iuwvFNaByFDADFmA5hgI/K+xYV8JdXfYZJX76QEed8stOrBZLJJPtKynjv+T9SumItjdXe9vavxHSYvg/4iEoPzGYh04HWZzK7MLtB/gno7NBJEbCN8LuQxYWCgaSSDUsF92M3mfw+7JYTZoWwa+jMXvDLfLejYFA/Rl14NiMnj2Hwp4YxoHgo+QMKySs0e9Acq2uiobKOyj2HObr9IPtKytj19hbqy9PZCt/atZihOWnfbMxywNDXa5wpGMip4r5UcCl2G/qsoevLl8WhhZhnMt2xhNpNK47mA82E/5tlW0mgLZG7q8HAq/i/xipxf6rgfEdtO4aZC1AGvIcZqVwEfAu4DI08epeLmegV+osw6rLy5HuX9F2KeWwU+m/XHYqCQffQE7gX82jO5/XUgttTBc/13N5T270Bc6N6Jbr+vRgAbCT8l15UZStmQwvpvBzMud4/BFZghhYThP+bdpeiYJCdrsTcqfu+fl7DzV11L8weIlFf/9XAYszZNrF/JJlJb2AE5rznM0M3xLPdmIsnc481jJ+oz0qQj2rBzMzWHIP4inKp4LWYScFdlY9ZahhyPf8OzC6ojxHP/VsyzjjMjPHQdzm+yh4cHIYkaeuLGSr8CmanMo0YRF80YhAvfYHH8X9dNAH/0IX25WOWBn8YQRvTLftPtknXtAMjyM7HAe/TtfPsxT0Fg/Dl1GDwL5hgcC76Es0Uf4/ppH1fB09gOvV0XIMZOQ197bZXdmAepYilAWTXxMBV6Jl/HCgYhC+Jk5+5gkF4U4imw12PORekPWcAr0TQDldlOf6XV2a9XOAB/M9O9V0eRLP9407BIHxRMAgj9FLBOUQzOdF1qcDscyOWZmI+zNB/0M6WKsye2JK9FAzCFwUD/0IsFczF7JMS+vqyfT8LyeAbwExaBdCRMzB30nFJVMuBW4EDoRsiQWhVQngtmJ0PS4HNp/x3M1qV0FVRniqYR/bs1LcGM7pRGbohbcUlALT6K0wQyNSZ9GXAP5LeMbfS/SgYhKdgYCeqpYLZphSYgVkxkDHiFgDAfIl+HbgDs2IgExzGDJH9CjgeuC0SPwoG4SkYpK8vZnj+ptANiZndmO2Ft4VuSKs4BoBWeZgL8A46nkHq01ZgAebUK31JiGsKBuEpGLQvqlMFs8luzE6mGTESEOcA0CoHuBhzxvV1QH/Pr1eLGQL7L+BNOn+8rYgtBYPwFAyMqE4VzCalwFQyYE5ANgSAU/UBvgB8/mSZhJsvxC2YpTD/g+n0fZxvLWJLwSC87hgMBgNLgOmhGxIjazB9VdBHxtkWANoajNl2dBxwFjAeGAr0w8xkLcQsOanB/OOsxAzR7MVM6HsXWIdZ0icSVwoG4WV7MOiJOaDrLrK/X3FlIXBbyAboDyXSfSkYhJdtweAKzONR30sF0zZ0YB7TzhvEBROKGD+qgFGn5zN4QC4FfczJxPVNCY5WHmfXwQa27KrjT5uqefPdcg5XeD/fJwl8GbNsPAgFABFpS8EgvNZg0PZ0xTgEgzHAs8A5oRow8LTeXH/ZcL5y+UjOP7vz08KSSfi/96tY8sp+lr56gIqaEx5aCZhR509jRp0jpwAgIulSMAgvLsEgyFLB4UP6cPuc0dx8VTEFfXs6qbO+McHiFXtY8NRODh5tclJnG8uBWT4qTkUBQERs5QJj+WgwGI95NizROMhHg0EJUB+wTTcCD+F5a+ZePXOYd82Z/HDeOPrl9/LyGg1NCe5/cgf/9kQZx084X/x1JfCS60pTUQAQEV80YhBeJowYeF0qOLa4gCd/PJlzxp3mo/qPKNlazZy7Syjb53Qx2A5gIhGP4igAiEjUFAzCizoYeFkqePUlw1h8zyRvd/3tqalv5uYfbeDF1YdcVvsd4OcuK0xFAUBEMoWCQXg+g0EhZtt0J48DbplZzIN3TKBnjzDdWKIlyTfvK+XRF5zN39uPmUDpfflBKwUAEcl0mmOQGWznGMzDzAewdsvMYhbdOdFFVVaSSbj1vo0sXuEsBMwDHnZVWSoKACISVxoxCC/dEYMczB4Hf2H7gldfMoynfzo52J1/W4mWJNd/f52rxwEfYDauS7qoLJXM+ARFRNxRMAivbTA4DtxjW+nY4gL++NhFkT/zT6WmvpnP/O0aVxMDpwL/66KiVBQARKS7UDCIsd69cliz+KLIZvt3VsnWaj53y1ucaLa+eX8EmOugSSkpAIhId6c5BjHwva+O4SffGB+6GR268xebWbhkp2011cDpRLAkUAFAROTjacQgQwwf0ofSpZc4293Pl9qGZibMXsWhcuuJ/FcA/+2gSR3KrAcpIiKZoxFzGui6Nv9fIwYRu33O6Izv/AH65ffitr8ZzT/9cottVZcSQQDQCICIiBsaMfBgUP9ctj9/aSwCAEBdY4KxM9+wPUBoPeYoe680AiAi4kZ7IwYKBhZmTz89Np0/QGHfnsyePpyHntttU80kzO6JR9206uNpBEBEJAwFgzT84dGLunSkb0hrS6uYOvct22ouA15z0Jx2aQRARCQMzTFIYciAXM47K16dP8CUCUUMHZjH4QqryYDjUAAQEelWjmM20NmEOUWvVbcLBp8/fzA5MRynzsmBqZMH8uzvD9pU433NowKAiEg8tBcMsvZRwpQJRaGb0GUXTCxSABAREa+y9lHC+FEFoZvQZeOKC22rGOaiHR1RABARyU6xHzEYMzK+AeBTZ+TbVtHPRTs6ogAgItK9xGbEoKhf7xAv64SDtisAiIhIJDJu8mFhjNb/t9WvwLp7VQAQEZGgMi4YiBsKACIi0hXpzDFYjAkKXVLb0Myg/l3+9aBq65utq3DRjo5k1IQPERGJvdY5Bk8Ch2wqqqq17kSDqaq1OgsAFABERCTGjtj88o799a7aEbkP9jbYVqEAICIisXXY5pe37opvANi2p862ig9dtKMjCgAiIuLLAZtfXrupylU7Ivf2Ruu2b3XRjo4oAIiIiC8bbX555TtHSSZdNSU6ySSsXlduW40CgIiIxNYGm18+UnmcdzbHbxRg7aZKjlQdt61GAUBERGLLKgAAPPm7/S7aEaklL1u3uQUocdCUDikAiIiILxXAdpsKnnntAPWNCUfN8a+uMcFvX7c6BRBMcLJ+hpCKAoCIiPj0ss0vV9ScYPGKPa7a4t3Dy3ZTUWO9B8DvXbQlFQUAERHx6Xe2FSx4aid1MRgFqG1oZuHTO11UtdJFJakoAIiIiE+rAKsF/QePNvGTxVZPEiLx40e2c6j8mG01VcAbDpqTkgKAiIj41AQ8b1vJL5bupGRrtYPm+LFuSzWLntnloqrfYj4z7xQARETEt0dsKzjRnGTO3SXU2B+y41xtQzM3/mA9zQknmxY84aKSdCgAiIiIb6uBLbaVlO1r4OYfbSDRkjm7AzUnktz0g/Vs3+Nk2+IPgD+4qCgdOrNZRESi0AuYYVvJtt31fFh+jMsv+gQ5OQ5aZSGZhFv/tZRn7Jf9tfo+8K6rylJRABARkShsAL4GnGZbUcnWGnYfbOTyi4fSo0eYFJBoSfKtn23i0Rf2uqpyH/B3QGTLHRQAREQkCs3ACeBLLip7b3sNGz+oZcZnh5KXG+3T7Oq6ZubcXcLSV63OOmrrn4G3XFaYSuABFBER6UbyMDsDnuGqwjEj83nq3slMHt/fVZUdWrelmjl3l7Bjf4PLasuAiUQ0+7+VRgBERCQqCWAPMNtVhZU1J3j8xX2UV5/gwkkDvI0G1DcmuO/XZcy99z2O2h/009aNwGbXlaaiEQAREYnaMmCW60o/MSiP22/4JLfMKqawr5v727rGBP+5bDcLluzkcIX1Jj8fZxlwjY+KU1EAEBGRqA0H3ge8jNsPPK03s6cP54YZI5gyoajTqwWSSXOk79OvHGDpqweorLXe2789FcCnMRMAI6cAICIiIVwP/Mb3iwwpyuWS8wZxwcQiBrC43AAAAedJREFUxp9ZyOgR+Qzq35t++b0As4lPefUJdu5vYMuuOtaWVrF6XTlH3A/zt5UErgZe9P1CIiIimWYBpiPsjuXfHXx+IiIisdQbs0tg6M446rLq5HsXERHptgYDmwjfKUdVNgIDnHxyIiIiMTcC2EH4ztl32YvDPRBERESywRjMbPjQnbSvsgsY6+rDEhERySbDgfWE76xdl1JgpMPPSUREJOsUASsJ32m7KqtOvicRERFJIQ/4JeE7b5vSAtyPZvuLiIh02tXAUcJ35p0tVcC1Hj4PERGRbmMk8BLhO/V0y3Poeb+IiIgzX8ScHxC6g2+vlAGXe3v3IiIi3Vge8F1gP+E7/NayF5gP9PH4vkVERAQTBOYC2wnX8W8Hvg7ken6vIiIi0kYP4GLg58AR/Hf6VcATmMcRsT9NN/ZvQEREBDMqMB34AjANmIQJCDZagA3AG6eUJss6M4YCgIiIZKOBwPnAOGD8yf8OAwoxh/EUnPy5OsydfS1wCNgGbAG2AiVAeaStFhERERERERERERERERERERERERERERERERERERERERERERERERERERERERERERERERERERERERERERERERERERERERERERERERERERERERERERERERERERERERERERERAP4fPCyOKgPjNuQAAAAASUVORK5CYII=;" vertex="1" parent="1">
          <mxGeometry x="699" y="528" width="102" height="102" as="geometry" />
        </mxCell>
        <mxCell id="1fXFGu1g3uYbb_LP3-D0-54" value="" style="shape=image;aspect=fixed;image=data:image/jpeg,/9j/4AAQSkZJRgABAQAAAQABAAD/2wCEAAkGBwgHBgkIBwgKCgkLDRYPDQwMDRsUFRAWIB0iIiAdHx8kKDQsJCYxJx8fLT0tMTU3Ojo6Iys/RD84QzQ5OjcBCgoKDQwNGg8PGjclHyU3Nzc3Nzc3Nzc3Nzc3Nzc3Nzc3Nzc3Nzc3Nzc3Nzc3Nzc3Nzc3Nzc3Nzc3Nzc3Nzc3N//AABEIAJQAlAMBEQACEQEDEQH/xAAbAAEBAAMBAQEAAAAAAAAAAAAAAQQFBwIGA//EAC4QAQABAwMACAYCAwAAAAAAAAABAgMRBTFxFSEyYYGRocEEEiJBU2NRYhMUM//EABsBAQEBAAMBAQAAAAAAAAAAAAABAwIFBgQH/8QAKBEBAAEDAgQGAwEAAAAAAAAAAAECAxExQRQVIWEEEhMyUVIFYpGh/9oADAMBAAIRAxEAPwDuIAAAAAAAAAOYV9qeZfnk6y9DGjzlFFEAAUQCQQHVH6E86AAAAAAAAA5fVP1Vcy/PatXoY0eUUMAokgAgCiZB1V+gvOgAAJIMD4zU4sXJt26YqqjeZnqh1Xi/ylNmryURmf8AG9uxNUZljdMXfxUecvi51c+sNeGp+U6Yu/io85OdXPrBw0fJ0xd/FR5yc6u/SP6cNHydM3vxUecnOrv0j+nDR8vnZ0u3MzP+Wrf+IdHNEZffFyU6Lt/lq8oPLC+rLzVpdGPpu1Z74PLBF2WuvW67NybdyIzH8fdwmMNYnL85RRRJBMgkyo6u/QHnQAAEq2SR8vXOa6uv7y8RcnNcy7WNIecuCpM94qZ7wSZQQEARWr1jHz2p7pcamtrdrsuLVJkDIIogrrD9AecAAASrZJ0HytXanl4ev3S7aNHlwVJkEyCZFASUAGr1je1xLjU2tNbLi0RVAAFHWHv3nAAAEq2SdB8nVP1Ty8NV7pdvGjy4iZAlFQEAkAVq9Y3tcSktbbWuLUBFCQQHWnv3nAAAEq2SdB8jVP1VcvDVe6XbxojgqAkgAiKSCZFavWO1a4kaW2uRqZBAFEB1t755wAABKtpSdB8hX26uXhavdLt40RxVASRRDCZFTJkSZQazWJ+q1xI1ttcYaIoAAijqd/4um1Py4mqruewv+NotT5Y6y6Ci3NXV+XSH6/VhzL9XP0e50h+v1TmX6no906R/X6nMv1PR7k6hmP8An6k/kuntPR7tPV8JmqZ+ffudFPh8zM5fZFfRP9T+/o48P3Xz9kn4OcdVcZ74Th/iT1OzFrpqoqmmqOuGExMTiWsdXnLhlUmQTIJlFa3V97XErDS21ytAEyoAkyDoNU/NVMz993a1TmZmXVQjj0UOio4goiICgML4/qqonunL5PEaw2tsTL52iZFRABrdX3tcS5Q0ttdMq0TIEgmVAHQZnrdk6tJQRFAARAATKsLUN7fi+bxGzW3uw3zNQAEQazV567XEudLWhrpVzQBRBQHQnYOqQUQQyomQTIhkEGFqO9vx9nz39m1vdhvmaAJkUyDWavPXa4lypc6Guc2iCgIADoT73VoAiiCAIIKIMLUd7fj7Pnv6w1t7sN87VMgZB5z3orW6vvb4lzoc6Gvc2iAKIADoT7XWIkggC4QBBAEyMLUd7fj7Pnv6w1t7sLLBskyiIKA1ur72+Jc6GlDXubmigCSYBR0KX1S6xBcCACAJkEyIisLUd7fj7ML2sNbe7BYNSQTIuDKZGt1btW+JaUOdDXtHMXAhgSQAdCl9LrUAQRFAEAEygwtS3t+Pswvaw1tsFi2MoICINdq3at8S1tOdDXtXNAFEBJkHQ5bzLrRMqiACAZRTIPKDC1He34+zC7rDW3uwssGyZESZFAa7Vu1b4lracqWvbOaZBJkEFAdDmWsutAEV5yBMgiZBMgZGDqU9dvx9mF3WGtvdg5YtgEkAGt1aeu3xLW1u50tfls5JkUBFAHQ5aS61EUQQBBEAUQYOp72+J9mN3WGtvdg/Zk1ASUVAa7Vt7fEtrO7lQ17dzQAAEUf/2Q==;" vertex="1" parent="1">
          <mxGeometry x="683.95" y="220" width="68.55" height="68.55" as="geometry" />
        </mxCell>
        <mxCell id="1fXFGu1g3uYbb_LP3-D0-58" value="" style="shape=image;aspect=fixed;image=data:image/png,iVBORw0KGgoAAAANSUhEUgAAAOEAAADhCAMAAAAJbSJIAAAA8FBMVEX////7+/v+/v78/Pz9/f36+vrodi1cZpJbh5vHIDcfRX7rkSlxmabjdC1bZY/DIDdskqT87+jwq4rGGzShucTxtXZBXIzXbXnnbBDncSHrjyRVYI5KfZP64tfqjRnwqH/0xpfMQVHzvokAMHPuoUrb3eZlbpe9ztR8hKbExtV/o69sgKWgpb5jkJ8TP3rDABt5nan66+2ssMTf5uqetcC5ytLzv6TFBSnSXGj13tPv7/P2zqeGja1LV4nG1dnvp2HiZQAAOXjko6rqiADsmTv65c/voXbdi5TYeoWJmbXLN0rLTFrCABJJYo8AKnEpTYS8QF17AAAUbElEQVR4nL1dC3sVtxHduw8MxNi4NhS4hISWGNvFCa2hIU4oSfNomzbh//+b7kPSzoxmpBntXivfF9bXc1dzJI3OjGZ2XTXV2JpNO11sNvX4b73ZTB+0GyrSOBGNbCRSe5GVZRNq5r7ZJQBWkmy3qtKtYmzFrv3H+lnRzGDUSwwwPxhM1wVq1mqlFTMozopFtmwGE11nepHnPrFEZbvqohnMd21aovzYrrTJFNlgfokW2SBeaJrF3RkMIT/blQVgSddYtmxxF9jVMINXb4f2ssrJrsNQTs0bs8FBkX9c7u9fXl5kZRkb1LMZVfNGbXBAuL9/kZFdNoOR7E562XT8bAOEKk9mGUCAr2Tu+6Vkp4kZYSFNVIJsQk0twHVoIiC0Ef0ijzLdC0cwS2jCI9wZTcRqNulvLqEJxhetPcKdu2pIzZtz1TZhDvM2qFg8WjVv1FWDbLH6DEqyN+WqtZ7xA8KdumpAdveuGpCFCHfrqsH9DX9ztxE9QKhy1RbbYAxwFRtkdtENZfyVInrFhlQOsGQ5B4S7dtWAbJVcoitH9AHhSjSh9Ch37qrNQz4z/hKayET0kexKhqDZcbswh3mAKx487J4mwEgTxm9SsjmAajWLXDUnUjeSIs7j7XBrX+6PCGvyuZsE2Qarti1R05s/PzQpQ2iPfnbtKAWwfvMatov+v/0J4mvc9q9SXV+FVsZmBKBucX/+47Ox/fhgFBEi+vpiX9cur6qEq3b/qWv3izxKDFe7/37+7JOxPXvA3dzblQmhzG33b7t2X2GDXWSvGKBy/w0InzxIbTKNAWFik5kRWtUcRSp2iea2MoAw4ap1eoR1giZmhFY1nWxJ8mVepXVCdvPmYmyvL/y/Yae5QL95fdUkjiEIQjObFblq8xzWcoQALd01zIdzSwGsMEK7R1m0/0I7xADTyReEUOuqIYQFHmVJRN9ShClXDQ45RKiO6CHCooMHNyKWxU3mMDWD+L4AoZ68AcK2xKPEcJWLG/GhHiBAaEiAArYoierwT9rFDedQa4MIocX9AoxfEtWhn9QuPWZ8Ooyy6xGip9gGxa4B4xdFHqwivKsGvokY38vSiD4OreYIWO9jxIxvzhFpZpDOPWR8r0jOBnuRgNAUD0aMn7dBZB1FdTKA8XW9OBHM+MrDBMr41oOHkv23Fhk/E/0TxteNLUJYcPBQcqpGEcaumnC8gRhfax0QYcnhn66XCs19xPhZmnC3Q4yvtQ6AcLd1bfCbPOPnC4Eg46vdL8j4VhusSJZbvbgx4yuXaMVluRVKA8Y322A17fX25AtAaAFYvfQZUoN30s4I7TZYO8Y3zz1kfK0N9iL1S5LlVlhHKzK++gC+5PQ1ZnzVITHNcuu6JggtXiIFSL8p77+UD7XllP+4HNrrKgsQ3g4j1Lpq8+0K9t86YnxtQey1O9m1AKSMX6nVdCL2/TdmfEtJs1+heobiGN+SI8I/KRc3RqidwenCHAIBhCaayAAMh07eMajhBWL8IBLJMlt/poKQa3Qv5Vpif+M/njT69k9S+/DEzeELUeTz1jSD1ds3J2N784Ze3A7NfXASiZwk8rQ8wEmjD8+ePXnmmr94Ml44gD1ERmS6+KmpEgAjG6z3n44gnt6e/r399Km/uE3b00jkfkfGC5+sxPuv0+hDAGJvT15sZFvhKghfR0AMzWU0hBSKbIMfygH2CP1dlCXNKyAUAYr7+rI57MQZZGliOUIpCSbv1e0ShJ+8aPDtcjSxGKEYIMnuxKI5dAj1B79LEcYziLLcvA/0od85e5BPpgYvwGqURH5qLDO4GGEjLNEIIPKBHryQ2k/zVEntQ6OjiXCy/VRqMxBZpJPjBwFgOFXzXmRwaVoYAY8+TRBpoQh7u8TBb9e1Y+vmi834Lzgvdb/ZRCKdOIMFdW2jCPBLV3ryZdaoJoNBT4SrkBGPZDmArSkOCd8Ec7j7J18IQnNJXSoOEepkUIyf76XkiQbo9WCEFjVJXZuhnDKO8RXxc/GTLwhhQdWnfYlWLZPlVsSDqeON1GBAhEVVn/gnVTaYzmECoCXvLtgrynIr1MwA1CVqcAS8akQfdw0ypBo1eYCmJ1+aXF1bwlULtGpgKC7LrbXBSqpryy3uZF2bNIPd3+d2FClSUtemsEGhri2bx2Dq2vI2ePT9Y9++/4YqkrBXsa5Nk27h69ryQxPXtSk2jqPH925N7d6jTwVZzq5ydW3JGWx1Nhh9U1XXRpfd0WMP0CFUPpOSqWvLAZSfjU9tT4YsdwDYeoT37t0aEWqrPnFdm/19BjaamGQp4wseL1a6cQh7gCNCddUnqmsrL/uy7L/0zDvhfkGlJ4QDwAGhvvIaZbktaiKAxvfJZLLcPNGPCEeAA0K935qoa8vaoAgw5R2LdW05V21AOAHsEbY6G8QIDZ4MqWuzfJPWteldtR6hA3jr0Tc1vF16bKO6NssMjiKauc/XteWfPuv50BPiI8f4KvLOZrlz5Twl75PRZLmjZRczvir6j7PcajUpwEyoDL8Z1bUpwqWY8VUlzXGWW6/mJFuyPSmy3PHO2FDG1z75wta1kQQoq4OTFQH6JwSYbybq2uT4piWMr97Ak1nu7pVrV43Ir9IwXg+t09S1KZMvmPH1hclMXds8g9fvt2N7/0UVqZkGWL8dSl8uT+LnMQZZfCKsjOgx42dcNXBftq7NyTbX272hHWy/YNQcRfjRqztXoHXC+61wDtUPKUPG/6ZVLtGKqWsDarYTwgOPUKhrYzeZ6XHPk4odGvD8of5MBjF+lZaFFBzSFZeMmiPCA49QoHZ+GEeElw4hXdw/f+vaz1WeJrxGM+N7PtSdwL1869pLRs0BYQ9wb0QoULtAE3AO4+3JJ18q9QwCxvd8aAuBaiIyqdkjHACOCDMzSHkQIFQc5ioAVjMfOoQaPz9H19fbEeCAMFPXFhG932lSbp0p+TJHwIHx8zaY9SgHhHsTwmxdGxnGgHCtdzq1ng8D4+dtMO9R9gj3JoR0d8ZeD5N8eevZQpFvUHBbL+v40DF+wlUznE/Xjg/3PB9mAYZZqb0dmhKgyWU38aFj/MTTtZbz6Yjx466lXsJOY7DBzLIb+TAwvmGJJuLymjA+czseYMT4ayRfOMZX0ESaUhzju1XKdy2EyojxEzShfy6MYfwimkCnahPjOzvku5biQTiHy2bQaxRFwItowukwMr7baQQ1pXUCEC6kCb/t0Qi40AaxLOBD6XZSRD8zvmUGUSXxdFH5CxIBcyKVv5364GHmQzlHxH9zRqiiCXdx9IdE+2yOgB//kpI7atQAIeNLK55+0zu6M+OTdZJMvjx6nGgBYA8x0b532xAHsKKto4w/NxZgeGlQG+zQy/lx1SZf0MW9+eJW7uLeoyN3u9hVq16d0TYBPDiIfnEGcA7L7pI299aRqF35Ayou33D0mFc6DxCIPJJeXNSrebbd7m23B+P/xwsPcG/4YK/fdrbuYrt12vlZUb5nZXodUMXZIEm+FAO8NSHkbfDMBbwBV+IiqDndQotw/5rMoJR8KVyiw0Z7VLE0May3s60a4J4ffmdXNoSK5EvpDE4IpV30bKsGuOfXl9s4TAg1yZdigANCkaHOtmqAe15NtzNGe8zUhpcAvUZvBLpOuWog+VIMsEfYijx4tlUD3IbAb7rF9bV7OZz7tw182OHKXG3yRQ3wFhV59Gkb2aAnwrMAQwQYflVBgGFWQtlt8GkCVaqSL2syPufJVLRFMT4AhQDGyZcQ47teNMmX5uizRPsFAPwlJXckAozUpDE+44/gb4LkC46ALRF97ElXbhsCC5EXARe6BGiFY3zOo+SHplcaRcCrvCGWyXJbI/pYFsX4QtdCWA0RrvOGWKauzV7STGVhjC8UG0vDCFZpUUQf5wcNdW26KotBFsT4kppSWD1HwJYnXxLllIq6NnuOHsX4QtfSOgkI1yppzte12WcQRcAimwkaecZf72X+2rq2fDkPuG/Eh/E88BrVNWX8pU++ZOvaNDMYyTYUoTSDcS80xl/hLc04y61PviQARozPqIlwQ6WFLHfxky/KujaLDdYR4wtd870gxo9dNZ/LMmSi4Jm3VNfGAfROjj8xQrKE8VlLEnphs9x+7v8amiFZytS1aZIv7XVojJqQ8QWPUloniPGJ0u3z46l9/av4xHakdJzlVrlqbf3wS9ce1rGaXJabjK1kCJDx6Te758d3xnb8fPqVpqSZyXKrXLUe4d2xjQipLGR8YfFIvQDGp99sPMLDO89rHiBDKXGWW7nJPLzrWo8wko2z3MI7ReIQ6O14onHCRfRNOyE8PDweES6ra8tWZACETF0bZfz44IEH2G6m1wFd19zOOCE8PLwzItSGQCTLraYJv0rvPoweaG4bWrkXLx6hl1AJwC67EWEPcESofpk/znLreRAgrLBsv76676Z2diUA3LC95Lb+AeEAcECYPL9B9+Wz3FmAm3mnaQU1QxO6TvXCK90jHAH2CBu938pmuRWuGtpLOZFc0KOI0qP9t0fo2GIOOMQl6utkFFluNqL3O82EUBNr4/EqydE3Mx9u5MGAvUCEcpab80VrxBYFM5j4ozbywW9g/MPntQgw2vZoljvlqsHpgQhLynnsM1hvKOOr3K8a86EK4HhfzPgiQHFsiSKaUi7K+EryJnXeKhusEMJWZYNpgLqhwYyvWaJzXdstz/h5G3TaAz4UQ8ZE1zzATJ0MYnxbXZvnQzH5EgEEnjcNZFTlPPzNMzsjZHz9y/yZM29VRI/ZwqCml03WyfBDAxh/owA417WRCFgDsNkQxrdUXhf/VTLI+D6iSvcyISSMnzo2BJsXnkN71aedQfsPGMbP2lUN3zjwaVoWPSCJGL/gfDqiifz+Wwc+9Iwvu2pg6z+Cb43grYMNwyBCC03gsi/b0HSYD1VHjF6j6M2f2WNDgNCU5RMAqqruMR+qTsGtz1ID2ZkP7TYYA9QtbsSHqhBoycFvzPimDAMaPW3yBfKhalYUp2ryYMxsMYf2KjUnEfbmuaEBfFhrelmSfKk6yvjmHBFjvbnFDfnQYoNFyRfq05hzRHVqcVNFnGw786FzFZM0kZ/BhGxTIz4syBExm4zvpRKbR3jnuSwTRlq/RPk2I0xJyeYv77/1v/4otUMX4h8eiiL/7tQAR43+8xepffQIP4oi321SK959zMz9u6+PheYB9utUaC5no6+T+e2HL4V2NzRJ4oc+rpIZyg0jt7jfOV6f8dzhPmAvJgs11MmcAiTm1jOlaP7iDNYTwkKA0x5kscGlCClA9PYWaf99d1wMcERocdUWIYyjf+CYyzM4ICwGOJ4VW1y1VRAKjpHsA707LgY4IDQ8+dKP9AoIBScq8TL/d8fFAEH0r3LV6hUQckt06FoGWP/3f18JLcC5I0l8dehf5q901X77/c9Cm6FLEr9/7FiApK4tGvKEozHH+LIMvV3u4Fdswaf5LSW15l8lazYNjvEXRhPihuREmCy3JmFGAJreEEvOvC0RfWjJaAKLzBHwRgYo2KDPy1jLKVGMb4joz13hxKlhBlGMb1NzusgAFPZfHONTWVHpGaECYLgdzXKblugoYi+nBDF+Ih0UZ4HOXWnIaT60AmdjNMZXbRUIoL2cEsb4+WOIsMkAhGqA/bZGEOrVdLIlJc1xjK86VXMIDw5Oc7LodjjGNxzoOVmFIUTfjLLcyiOLc1cqeZoDiJIvCKHhvMsPhmoY3UXt7yXWtaV58Nw9AXqalk1mufVqYkI0fTNf1yaES+fuCdBTTlbsOlXXpsglSr0k919S16Y++D13xaCnOppwIrCurcrIcvubEiAaGmVdW+Sqnbti0FPNDIagJ1XXlqaJUTbdi5DD4uva8iXNgPH15q+oa0udgjfKXrDSybo22dkGfGjwMfJ1bTnzL9l/FXVtTLgUMX6CJsB91XVtwtiW7L9MXZsmXKKMr+w6U9eWTdRYfaChxXVtuqfPMOOrlmidrWtj1MRdW21wkA2MH7LcuoD33D0ccaoFOIro6tpiNT23kF40Jc3ZujYpoj93j0OesgClOhlVXZu8gUvDmEyzkro2bfIF8KF6iVbpujZFNjjTC29XfF1bfGQR3mnjXnsDYnw/wE2kNN04EnVtqrxPxS7RzDeTdW3z7fx7GsYXEg8tsEXnPvC/ue7knTGKgPV/c6CiZV/qUodUXdsc0ftHIeYW3tpBf/H+VeWHPApkxLo27d/KUhhCpD1T1xYPY3P9nr7CQnprx8H2FVUa3BdHwAo2I5DMPtDwwcz4jXDzetN279O4wIVDyPv5fF2bPvdq2X/DKpfq2tAuOiLUvTBnQiikUNJ1bTJNCGVfqmKV7tevXfu1FQGOCJVvBBoRCl3XH39w7aHhAR0ZoG5x/zO0UYT3l3qE2lceDQjFkrq/hWZw1Whdm3X/RU2KJrpoL92G9//Ee2nuGGL8pEDNBv+k3H+RrOjJbF7R9p2fuOg353KWz07XWLay2qDB0ivaaHwImqWUy6pmwf6blhX9sAhhmdJWNQvnPh/Rx7IeoY+Ai0qaNWPL17VZ9t/CBCiJ8U11uwu2CrWrZitpZmVRjG93v0plMcASG1SnsGGMfzM2OAO0FJoXA4QxvvnJl5yaovnjn3Zc0jzH+Cb3yxLR83Vt2iekkGzJco6z3EvejqbsOq10ycv8E4Mx82HJzphQU2aoTW3sZVGdDMP4O6WJBMAlrlpiMCjjmxiq3KPctasGFXGMT7Pcu6IJJ7uuq5bmTMz4S1w18UiWGwx1L4teOzbKQsZfShMVkZU50328O1cNiADGL/ISS9SsBaW7rCFY1omXnRlf/3y0js0SamZ6WbecMs5y78pVw7croYnUDCbq2tzJzUFVskSLt4pdu2qzSPuFPzSrskovdNWgbIm/ZKYJdLvQlkX0ao/ypmzwpiL6+Har0ER+MG4uoo/UlJReHtGnb7djVw3sb8I3d2SDpiW6BgWHv0q2Q1eNHYPCXbREzYzSmiXa5mTXWaKl1vF/bQLb1V0I4K4AAAAASUVORK5CYII=;" vertex="1" parent="1">
          <mxGeometry x="752.5" y="218.55" width="70" height="70" as="geometry" />
        </mxCell>
        <mxCell id="1fXFGu1g3uYbb_LP3-D0-59" value="&lt;font style=&quot;color: rgb(0, 0, 0);&quot;&gt;BI &amp;amp; Reporting&lt;/font&gt;" style="text;html=1;align=center;verticalAlign=middle;whiteSpace=wrap;rounded=0;fontSize=14;" vertex="1" parent="1">
          <mxGeometry x="700" y="292" width="100" height="30" as="geometry" />
        </mxCell>
        <mxCell id="1fXFGu1g3uYbb_LP3-D0-60" value="" style="shape=image;aspect=fixed;image=data:image/png,iVBORw0KGgoAAAANSUhEUgAAAOEAAADhCAMAAAAJbSJIAAAAkFBMVEX///8ZdtJjpP8AbdAAb9Blpv8Mc9FgltsAcNBVmvURc8/B1/E9itkzg9/I3PMHctHx9/wAas8pftRzpuFrouDp8fpNlfBhmt0mfdkvgNXe6visyez4+/6Ks+W80/Cmxes9i+abvumFsORKjNjT4/WWu+h7q+JFjNmJsuVnnt7Q4PRUktvi7vmYvejH2fLZ6PeAAvwIAAAMgUlEQVR4nO2dbXeiPBCGzSZGilRAaxVFra/dqs/2//+7R00CARHBTJLK7v2l5/R4gItMJpMhmbRayoo309mhj4rlvS27Q/V72NNxvloTTBz3BiBCvoPD/mi5CWw/6iPqzdYUl8BJmAT3R9Oj7Qeup94OlTVdEaXjLZ7GYI8zhJ0adFwuCQ/T2PbD31c8PZACPJc6DiFYiBDHL2hiitHq2zZBuYL/IkKvDBCHOBqttot5d7/5/v7e97rT5eztE4UFXsghnZ5titsKViTL5zqE9r8Wt0aEeDNfeSem7Dvxsdc1+9xVFcz8jHnSk/PYde+6yHizHPWxI1O64edPbMcFIhm3QTqLygNA0FtFoZN5O4eNzod9QN1I5nNCb1p3EN+sfCw1pE8GP8mvDjuhK73//uyx4Xveke3ccRbAj/m4FtSXHP5aYVCb7GRbDw8TwKd8XMND+lA0PCj6iGDpp5fz6RLmGZU0d5IGdPF6r37BeItSWyUH20F5/BamTxMBjWPBKjV7H9kdHI+pC3UQoGOYfOH0xc3grltbcyr8Ow2/YM2pm5oq6VgbN5bJi3b68La0I2IEciJLk8ddAoi1jM69SDQjRQAerL5GOLn/XM8d4pFwYy6x4G8O4gUTT58NLRJLJVNtNylW7AlAvNN5n81YjBuh2RguBSSao45gTWwgxsJEXV97/4iToREbNFQBSJGJ0HiVIGryaNcaccPx+2bGqa1AJIam/uKd+pGpBOdS9EXHyHRqwQFp31wGd5nc00AA90fcDJmc1whDdQ7abzVELNh2kdlY8TdHJFqH37M8PgJT07mwATHjUFeG7lMgMUQRrcYz57aCLeRP4oj1D+ppvMlwzG5C3jTe5KYm3H50Tvq/mKHQyM6keyq8jbbZ4pxP16itNCb3Am6k6fqBhQg4q9ijWu10x2zUGem5fBV9CzvVYkUbMSW0maPlsY3f0XHxNbU1Esry9D0FHwp9izZ61kY4G3h33qcG5y8lWjma3B2fM1lNsV8kPDoFvm7MmxABX/cBiXcNHDguiOWhUFLEcqiwk+GYXVVH/64vHlrB5oi5IyV2RwohNmK4HuTrPvBrAl5SQXPeZQBztRtuFz9lcQTrMxQwsBk4P8WRMnG/F4LN9mN2QWcLdUFVxTz+XkFdcMrt3lB+NA4KJf9kBmxUzM/4X1DXK9Wx0y9WJJnQkTsGoCz/0Qd3Xbc1pE5+gSqXiwfpz/hLB8oXsX5tKDmzK1k/Lc17ecpmDDNXZe/LAevWpercaMGcFfH4m/yBuGfAjFRfgiujUkIppBpdnsoByfEzg6B9iGvdVxmhHDSyuAYmUH4DfFv3VZVwyJsVYkLOr25oQQsjdN9/ZfR6Rdj6vPwQIpDkQ09oaN7ECV8ygO0Cwu3F6UKkjVhAQz/Vr1RJgrCdIfy4Jtzw1Kn6LQesG5qKSYsJC9qwxQgBom82UzET0LTqEPKOqDwpD/iXAlOJ7spWyqNv9UBkz8YdY7P76oRdNk4rL11gjgYqxL2v6oTDEMbVsBSzuclvKWEmu8anwVTV1bA7mvscc4PQvSbkMwLlePnTBQuOKqkGIRvHVJ1pwDeaG1vgVYNwBtKBjszWzeW6axAyJ+gMblypotgKD3etdpUaqkHYY8OFYmS6Z1fR8lG5UDUIJyADIvtg4StawnQ3KNTs2oHVIDw6LBhR60Hc1tVCozV2/EI54ZUjrEE45D5CLaBkeTY1f5VuHroWzjdADULu5/tqhP8xj6z0vfVQllzK53TrE47VRjI2k1b7ouyVFMi4mpWVEmZTFkHErqFGyEZVtWyILkKxHBOkDSEI3ayaR+h+vGc0BrBSOEI1T8MJCxMTSoQgMfMSYLTQTKg4WkCM+LoIYUZ89nlALWrTRci+a6p+utgDxO+6CHnkrTjvgZg96SL8AzJ7gpgBwxFmXfoUoAfBeGRdhFuYNCB7PKWV47oIYTJRIpuo8tlCFyFQNnGnHtRoIoxZ3OerJjoBurMmQqisPsCXGU2Ec6BPt0P1r2tghM5/8i+5K1VfQcGGi6tsw2LwVqjf191CEyF3NOproQu/cscRLs6eFaXPNBHyFRTqX1QKVyrM5PpzWV3v8dZDyCJmiG0X3+xd4cw/1yXpszA/QMERyoa0vHRD1aj0IvbcOLNGbl2WXMp3WT2Ea7AVQ6IjZnyWfULIVV+8I2Z2pq7L0mdGCOeAi16HzKsQucTAuix9Bk/465rwC3I9IR945FwNI6S/Ch/aBCFfQYtBVtDyfFsmH8IJix/aBCFfBa2YZxOa+FdPbprwnRGmmx+Btw+sry5nm1DsRoBabSd2lKQmYclKE8LfwDtKgqtdQZbbkC+HAtw+8ObnXpllQm5UAFG30Ca/a9MyIbui+rJESWy1alpxwy6h2GEJudguv0vWLmH+fUNI7HQW6RqrhF3+umF3tOZ2q9sh9Blhn4X4Y9i1drE4DMcmofP7/AtNFQdEI5KtTcLz+McTwcgHBhRTfeQfLROKyh/w1cYy1VvsESbVW8ABk+zTZcSwR/gpPQW09iKDGFgk5KsAfT0FInndAefLni8VX2P0VMKSq5lZGg93oqfoqgM0FQXEh3YI0Zin+PTt2OXlJ/2Oh6wQCiPSV0444OVZeU7fEqHWWlXzzBcZO4QUtPLOlQbEOqHuHUoRtUwY6i7GNbRMSBSXQFVQl5gnbCeEmoKZrJIa8Ma+W7R/8RkTcs1soku9zYcRwhRQV7R2pY6oIeNmEDURyoCm9swnx1tkEfUQSoAGaxoGkV+AqKkNE0CjZ+nFKeJru62RsP2CEtGRyaqNQXLQjDvW2IbtdySJWEJEY/E40IRtvkIhRTS3l7V1djfJoHHqjG0NhO2XcX5Ri1nEVnq+nft6eSJQwnYayCA6FqyGT5mbSZtD30+PBEr48ppEwH5/ckQJoim6i6bpAavuqTdCEn5IprkOWq2JmHYbRpz00xJ57gccIUJpD+TFBG0hBqPUUgFXfaWiSAQyE2SnL7YWOPdMoITywXwTS32xNYmILkKKM0uTbxlq0JvPu1pPnd+mB+aigr0ZNQiHs8y78nKPLSEmhjrcRiHGBIdkpHHmMVnLRQVItM3U/alKGP/5IvKp1QXHHaeGygO4eEaSQyB97Gk8l20unzbtEnqQjq6uRvi9jYhkCm44KiqPlCJe0hnf2R5C4SoLF2gmv//TvfyDOF69AuFm2ydy7VmXeDe2M2X64p7k15tjnYdTDAdOpn4sJaE36wV3CHvxZPqGwkxpXRdHt+e6KeKoW7BjgGg9f+P4hrM1cl2C0XrHijtcQs0L5OUvJ3TXEZaN8/xmsFd6OntiqH5hQV69iCdfSHBuPuCKAz0/3l9eLiUtT39e3j/41D0/e/DD9b11v0krJrdAr69jscxcN+IpVvWc4u0mrkuTNe/UzZOx5iNoUGFcyyKeI+KzVSSRrHbE1mbVxyUVnW/JJWQ9rbaqeSI1vfsqenaS8NCP2Aq6O4Rv1eUu1NktLasnQ49iAdM5T/TLBuJJ3VWfEKfQGPN0DiGHRa3igHspESY5aMOIJ2Oa7zx0cpW3G/ME5/TXs17NycJehFBZQOOteNFxvxwcUHhqTsdPp8vUJ84plESd3fS7/oaCxNPkAC0hnhUM58vt75HXPzfaycCiw2C2XWyCB3dLHPwbgBYRQSWOQSwAbAiiiBVer/magdgLywCbgMiXX6ICE20IIp+qvN8kfHpE1g1zX9ibhCjWD97me3bESoQWAjhAsaA7v+KmSa3I1phmF0k0C5FV/EBumat5bkRe5AGNm4vIl+u7zUXsici7uYhvpOmIsec3HXEozu79h/jUiCLbdhfxWQO4YfQXtOI/xCYYauW++LSt+K8vNgKxcnTzry/+WP0VhvoXIP4L4BrQiuNHEA0d/wujh/piaGoTFYgeGTTo2PZT19IjrQhQgtikHuiLqudGmFaNAE7sVaHGTnWEUdIXK8SoNw4q+umq3hfFCcrwdYo0q3JfLKq8/ByqOmg8L2HVAE5Yqcltt1Cq2BfZb7Dq4R9WVAUx2Zr6ZKMF1/2+KIZD/6mmF5Lu9cVkb6qx+gXgKjfUBJCqnLtiWWUBXLq7ONS6202zbhtqCoifcahIdctQJUCd5bRMqBhRAtS5yc2MigaNRgHmWpHVoEgAtVZ8M6cEEaGP886ol9fG9EGhNFV8QhunW6UaYaJMaV+U1SBAuRUlwKaYKNMwym8TDJ9w1luq+Cuzp9VxdNQftqy5h/keQUro4DlnhPf0Z+eRMAxRZ9lMvovi4TAo3OP4P9DxIZQhA/fPAAAAAElFTkSuQmCC;" vertex="1" parent="1">
          <mxGeometry x="706.25" y="370" width="87.5" height="87.5" as="geometry" />
        </mxCell>
        <mxCell id="1fXFGu1g3uYbb_LP3-D0-61" value="&lt;font style=&quot;color: rgb(0, 0, 0);&quot;&gt;Ad -hoc&lt;/font&gt;&lt;div&gt;&lt;font style=&quot;color: rgb(0, 0, 0);&quot;&gt;SQL Queries&lt;/font&gt;&lt;/div&gt;" style="text;html=1;align=center;verticalAlign=middle;whiteSpace=wrap;rounded=0;fontSize=14;" vertex="1" parent="1">
          <mxGeometry x="706.25" y="460" width="91" height="30" as="geometry" />
        </mxCell>
        <mxCell id="1fXFGu1g3uYbb_LP3-D0-62" value="&lt;font style=&quot;color: rgb(0, 0, 0);&quot;&gt;Machine Learning&lt;/font&gt;" style="text;html=1;align=center;verticalAlign=middle;whiteSpace=wrap;rounded=0;fontSize=14;" vertex="1" parent="1">
          <mxGeometry x="686.75" y="630" width="130" height="30" as="geometry" />
        </mxCell>
        <mxCell id="1fXFGu1g3uYbb_LP3-D0-63" value="" style="shape=image;aspect=fixed;image=data:image/png,iVBORw0KGgoAAAANSUhEUgAAAZ0AAAB6CAMAAABTN34eAAABWVBMVEX///8iHh/39/cAAAAdGBkJAAAfGxwXEhPz8/O+vb22tbVqaGkWEBHg3+BBPj4hHh+ZmJjv7+9dW1wQCQtIRkY4NDWDgoIoJCWvt8D4/f3FxMSKiInV1dX49/fEydDl5eVVU1Sop6cvKyzN0da5v8fT0tLX2t58entycHGioaGSkZH03dxEQUKJl6Wsq6w0MDHkMifsZlvyvbr16urxrKfvYVGiq7aWoa6rs72+ACTJTl/HABXRUV3ZYWnzzcuiABy1OFakACvmPjPoTULFKkDsfXbwpqHdJijywL3cSk/019Wcbn6hSF7Hsru0GECvACnUiZbkvMTDO1LSdIHfoarIpK7UlJ/FL0TSaHXGBCTJESrMLEDIAA7VO0bgg4rRSFXheX3WAAnfXWHGX3PhgYarABvMe43ZMzm8TWbfAADhsrzrcGnTjZzvmZTreXPIan7vkYq0I06gAAj+iH/iAAAXkUlEQVR4nO1d/VvaSLSGTL5AQgkBIUAI8qWAooig1q21UIv13tvWrbutWq12a+3WdWv7//9w58yEJHyKlm59NG+fpwIJQ5g355z3nDMJLpcDBw4cOHDgwIEDBw4cOHDgwIEDBw4cOHDgwIEDBw4cOBgM5lcfgINBYPL5jEPP7YSUzMiaqP/qw3DQCzmZzYsMRuZXH4mDbuSjWZ2hyGi/+mAc2KFl6iY3jCY5ru0WgUku1yVGa7PDyI5ruz3ILC/XsyvRZCavywwhyVFttwVyfW5FTiZlKZPFoBRJ0q8+KgcE+txcVNTEaAYbjSjr+UwmgxlyXNutgPY/y3VQ0TKmB/MDbk2UZSkv/+oDcwD4/L//p6kqw+hAjyEKJMap5twOVF+83Hi1U2XUfJbSI+bzDjW3Bpiep6urv7/e/cObYVRVzzjJzm1C9cXvX3YfYoZWnz48+vOP6q8+HgcdqP7+dFut7r55+2bv3dra/vu3rxZLt4YjKSf+6kP4xdAeru6o1YOqVtp59fb9/hrG3sFvr3fXS9cvuOmSbTYZUhPSQ4GbHpnuR6h40zffGTxcXVffHqk47qhiaX337OwMc/Tu3d7B++Pd9WvZkYCC1pNphPD/HhS56XH5uXLCyYxdv+2XvhxUQbOp6uLh0fYh5ujo0eEe2NH+wdvd9VGtyM0iczplhfXBX+9NJziBpsnfyQnjhftaPH//vrS/hfMetfSotasyh1vYjBixtLN7/OZgf3VvdfXhn9ujjOOOsJPtx0Vf2vdDBxVDU/BHRCn4oxUCheL9VJTV/aNHx5idxdbhNvZwx/CYWJKqrj/aOzgAgp6+/nKll+NDKWQUGhg2OKt0bGR6IrxoWQNjpllae7cYKpMtPuItp2Izk97i/UzG1tcenVWZo5MPVbCgZ4eawU7paP/9zqNX668evlw9PX35185w78IGPcgQAVMolwJ29CCxAFc5xPrC+GE5JcdCEeztpOl5hU95yMZYSvCFEvDIE3Qr6Wkd3hcS/MGgNpHiI8HglFZOTJbLucTPm4LbjItWa+v45Jj0rtXFVon8LX1sne1q2sEO9nOl3b9enp6evvhUGjIKm3KFefow7XeFgB0Jga9jUsgfL6ZCLlccxVEKM+FBaDoQd5OtHjRfLIa9+NEMmo8XJ5CSw1rPz4ZTIS0Y4iOpUEErSxNB+b6yo521zlofGeLR1PWTdezfqhetk6Oqqm6vUa4wQZ9fYnzeGTgKZmcKwSzjCffa2ZlBcXgVe7244ovhRzoXgSCCWcPPwiy4Q+y1CmgGdouhec2KO74U/AnECrFA4X56Npdr6V2rdbEuQk1UXf97S9WWzk4+bMOzIyrnKEGvXrx88nhjED+YHYb1w6PZiGZjR6KRHRCnSiyOqE+TQINHDNGtRVj6YBI4M+KOSOMOE/DG7qkqwNBardbCQnNzsQrsrJfOT1pLGpiSeHhsdrVxJNK+bDx58vhzf/+G2XEVUc7lykH4sdgpUIMCGLSEOON5OMJgy5ogWkIyNDQmJt7NDja8+9zY+LjQbCxgNM6XlhY2GyfnJermFk92Vct2dj59fvHtycvHj//pNwawI4M1BDnZzs4kMgNGnD6cdxvPg5zoElMIzejAR4G+SGjqZudeY+vvxer6RaUBaDYaSyrlRPuwT8OOKoJyO914tf1148u3x483+pgPsIMtQadGYLEz3cuOIR5cKQUUtCeEuAS1OJfLYacX2skFTm+00rPzJmBznUgEdevkEdR4qjuvn66tPtwtaerO4y9q9Z8nj5986RmDsCOheJyUDOyerdzexWAnhYy0JuKnfws4NEnIKAt4wIhMVeCwg9G8VGkth7DTaFQWcdzRnmP9Jm59PFhb+223BIRVv21g3a1ubzx+/Gf3EIQdV9DNkwm1qwJ/exeDnYJR3/SYdU73vMvlRzTuB5HerdnuO/7dJL7sWbNSqyxVsHdbqC3iqPNh++Lw3drhq20qt5mvp18Ii+Knl48/dQ1B2YkhEAZ2drBrC+L5lqZMdrQwCoBq5rAocMUJFxNESuN3itNEfxuezRX2JZxeuuviHM+6eIF9Wu1SrS4Sfs6bOA06aT3aEg1loO6efm5rhC8vvr/qHAKFyJ8wtZQw1KiNWuYMQukI6Oq2QND9iAvzyA8ukGxLgyQrI+QOI0Jo23awmSFh+ud//VuOZ+c4vGw2L7Wt5iIONSLmp4FlduvwqKSaqm3n5ZOSKa+3v33vdG4xYjMuY0VcDLQz46FPEsXpSS82AcnTtoNYfDoeo/sH8DZaI5KnJqcD9B2i10hvPJOT97RGYMOzfzE5tSVGvayVaJENBFzrbL1NDUbpzemu9VQtbXwfXDhwME48u6ye17aw/VQuYearz2pYGyy07PSID0+/Mjao1Y3Ht6bNfbdxsXlegf7BYm0dU7RUIdJtsYn52WrT83r1YZXpomfjVx/3/cBmk5QHxH//1bSt82btcqnZ2FKrx5ieRVo22N17U7L5NUiPtO0XPboaBxtdyiUkfVjpRdSlRE7Sx7GqQ9QT8Gl3e4FIrQYuTN2qbW1v1mqX2+J5AzIgdbHV2idbdlafbqsGLWJp+8s/Xz9vfPu28bVrHKmYcnMIg1PmJwr9Cpe6d8bP0l3Y2WlPn2mV4vFi3Nv7ei9yk7MCHUrwz3jvrPKuNnGao6ni5vlFpQaVgovmOW33bD9fO8M2UzrA5GD1Vt3Z/fT525Pv31/89c9Oz8KdRBDPE++m4PHE9citWFBBPtbYhWd9iJ/sodCDFAWNUCPw+JFiHypyV+lZbNawxWAdXan9i9MbdatZM9yYWn307oMo/vampK3vvt54cfr99MnnP3f6yoEiJ7g7QBNTC7kQ6trDzStK98IoD3K7hQnXFWAmENs5EntX69jnl0u1WuXyvFJZwqmnWqo1Ta2mah/Xjo72Xr99urr6/fTF1y8D+6MTCE5k3ocdDUdtqIudSWM+WYXu4iNPec7fuXJnJHbkeeUBHQqPhBT8aTx/R9kpNbbV0matUrmApQVM9by5aJKjVtcP9/f399ZWf3+9M6xzPcORqY7MeGO5mKcwEUFCBztMiqNkKKE47BKbmgkjH7wkKDH7QKOwo/kFMlY47onFYp5iiuXYu8rORQV7sEvMDnVnl80lqtNwvFk6Plzb21s7eDvYZihgTrGfsvrLTCxlZ4fxEyYUPmALNDnqnlgu1zXSVexMAtNCxGO+IJfD6G6yU20squsV7NpqFyDPlprPjJ7OxfPWu3fv9h/tXsEMIM2CEOh0ZV6bKkgpwB6a7hJpCT+8zgo25zYCOxKcCsJs51iBuymrL2siFKc3S5VKFatqTA6hprZwcnJyeDTaYtAYnq8HyDNw+yT1e32E8gQxA7/1wgjsxBVQAfdipUFpYWmzuXReqWKr2Va3a89UDVPTWDhZeL40gtFQTGO/RXsIfREjfg/F+m2bAevhzHWko7Djx4bao/XuJj40m+fblyChq7XFamWp9KzSaCw0NhevU0ULwXwVBm4OQ3hBA1LMEER4axH21ezIPhCE96J2vfj3wjNxs0kWSG1ebFY2m41G83Lkxe0GYPr7+S2KMpiOMjlgq6TgyfaZfFzNjg7DcffBsVVPnm8z/zagBKqKl9C2vj41LljJgeerPHAr5o5ND8zl44p9tkdlZ5TrG5gxX7swYjlibLd9eP5Iq1YwOSqzjYNNo7G5daMvNDQSkKgz2LJcMhiP0r4SawR2QEj0D2L2T51MzUci4WC8U0gmMIwO4WQwOBFwiTl4qff9En41Z9HBeKZD6UjEHwx07Kvhd+foeJ5pPN4UFAoL5cBY5P3H52Lp7HkVugaNhYXKtWKNHUEcO9jZARtnsGTg3QM2Aibg3WHjydXsMBF+iKOkKKShCsfzrKCgsE1LilBcSOMH0ixSBMGHxAR+pU9JUCYvtw2aKbqhQAjjcShk41tCnEJWu8bmkU8QFB5L+3J8Jnbjq/5s2N0vLbaOxdLHxslJ43JkhdaLKXI6D1DUPH+FxPKQd7eb1VdrNmCTF4acnpLfXoVj0YTpEESsKOBEiNGSH+8TXbNg9/F+38gMhrkIx1vjCcg6MyD1EoJw3QWtS6VduUQ5MC1N/bhPXd/bOmpdrD9qnZw8X/yh4Ugo4N19I3WCzP0wiSVyNtc3AjukMCGkBm6PkXos1PMQAn3n5sx9DXYkPNvYDlhgB3jg091jgApte88po6QB45EiPF2RD5DQA2Anhuh4LGYnh23HVfhhdkr7R+/Pjj+0TlrH6z861jTJ+dP9wqEXvj079N32sDVKJQf2dyupAUE6Bic6z/kDsUTCM81CCYlrT6fBTkjgOTYUDLFINgR6Vz0dbII1cuQy1HdZFCrgGOOdUEgCUDT3I+xEWB5FUkG/D3u2YjlX8E4N/wJXo7R/cLZ/uPfu8NUY1gcwaXp69TkqkGTC8IYNRKb2LqOwkyP1cF+6rzLQQWSwbFuFyBN2rwvs8H4PYoUCVH7EMkMdpdK1MKuID5orWB8mmJ+lQ1GKb/sCYIcNBjghQtp/MtatcsBbHpz6jYjqU1J7/u2HzYYiQRoCPEr1mA8ohisy+4BiiYqROgjkdMbnc3fdDpACjRGxOVmoRrDz9DFhJ5wSIrbDBE3JRzpdEU4CeB+JbBqcd0LI9kHwhdrnErDDz4Z9fnsUFH+4EViFm3zsvR3pit2RkOBJnBW4eNeMXVFHABDXb8zfaN23Mo3CCt9jrF6Ya1/HOQK5smE8IolDfEdV3JXmuyUNEOaj3rDIgcu2fycZWrJGvgXs4O38eHPj0tOXq6tviUob18ByiHRw3ArbOWOkjjAwUyXw2gLzaOxgGeUzmndd7g1iUpeDheGNISk7XaYMvtc3Y38F6oY0FDEkKnV+Brg9YwjKzqAi1Q0B5PxFFfQY70JdNGQq8ttPTTgzucHla4Dn+uzgeELNB+tl+zfI2cJ5GyL0TulFdoQdnu80b4mYm80dASWGLyxzvVFTAnMKGW99YMvVxoP1l6cbfxiecpz3/UqESDzAM2bLFX8SO3hPmoU88Ck2y5y0wrkFiBQcieOEnU47cVHnay9mgLEZg0AU66lLzPPtfIuwo4wj9zTx5fvGTj5JWZHz4xzZ5Y0oxL1xfvOETg+twdF3XTvuEDBFjro3NGGeYsSxdSuTSV87sBB2etLmbgPBlPAKmX2Gh0Sm+wQGtmlVnbAz1nr5Py92RTWTpR+ZHHNLkYlT9yaYjVISd4arApidtju6Bjs4ZhruTWlrJkhe2jxbIPrYuJwOChfd7BElp5iyS7fiEKTSvY2rGdOgiGbjxziHXz9VVUZLUnZ+wn1aJaoO2HaCF7q6VxZQrpfv2OChxirM0xkiTe3IrL8Ds2mzzEp46LEFknBZ9l3gzPSUlCXS/j7jUSVA8p3xhZ3qpx2ypiOZhVNFTP6MtRIBmo246diQ7F0x3SCR2qWua7IDK9uAHuMyOVIPx7loJ4hOI+MTdnpvfQVvM+I8xixr1Qm4QeNxFjup0Y92OLQ/ZEKOlslCwMm0TYcZuvL5uoix4G+MImIAgsrwe4H5baL7uuzANVik9lVov7s/bOz0eD7qftsOL2FpAmJG/WHZzhWFkNEhZmVjpZqUTeKxs8QfyFJGGu861wQ5vah3oBXoYQ0p0V4nvT47tPfK84yrvXKL6wMqI9s16m7AKcQZ0gvLPqNOQF93s33HI2fTONkR621yGDmblcVsxsXI+aRxw1ZtjMHNazWrZVKBHiYLiKAW2k+uzw6twZKTmVRl/B5vH5iKuh870NEzakkajiqm5i4QVdB3PDJpY2SHWZasn6TIZJPJbDKTtcxmrDcTBC1gpDDQQBkaOUGgmvNxE3ZkaCH5oJBJktHU4D0HsUPzGjIDQLBZsoazzDfk0tUxslNPWuSIefj5g4wtF2XGmvmQ0pmPWGPhik6z3tG6uwk7tLuachlpf5+40sZAdoAGqiyxfrOKDUDVkE7SGNnJLsNlHxoG9mbRaDSb7Sji5Mea+eRgyqn3liGltxRRD8AvWe2vG7FDitzwCTJ0x5TBxamB7DBuYwNkTJYfTii99Ws7xsaOPgemozF6JlqvZzMZTE/SftzjzXwSyGSHhoWBkQc7owe2rTdiZ8qsfM2yfWoBFgayQw4SHBrW0LbE1OUevnZubOyszMlYAmTr9WhSkhktG5WSURs9Y76Xe8zWESX9sK6qvQkxTdZTmafnjdghHT7ypsnhvb7B7EDEAhmTYjvqcKQ71bPqwER7XcGPQp5bztaXV4AZIgrqeU200aO3HzFdf2+Ioq2hhjMS0gTpJzs0uhTUOttvxI5Vj8iR5VkDT3bafeu7Cac8OC3TUWcbm5QAlYHJ4LhsJzO3nNGZ9u+ISfUMfoTpMcptriQxHdm6QPY6l8oywe7DBzduJhD4hPSR4kGv9cizsEWxnaxXs5Pr0VAkyBlzCpltn8VbxtccbDu0fpPAjq2jAUH6O33m3xhvXOwk55ZFra3Z5HqWPBQzUSoN8th0xLz953euE4Y0H9u1RAgKV+YiKEyCseygO/Z4SUPVN2sz1KvZSaCujpvot2l2mml1DSBPGP2BIexAXqYUZoSuCFkk6VrX6jk9ZRzB+NiZy5t6OrsiGo/y2SjmgckmpWSHaBOvo68ZnkXpgOW4EqmuCwtcEk+WHXDhsnUCiF7aDvKF7ZZH2Akycifsh5ZALArZxvGkO5wjZC5uJWRzbnJAQFezA7KcDYZ5s05gfDdYZ+zmgrawrMe5tvMbn2ebixqMaBmrZsDImWw2j/PSfOfJn7+OSCBdEI7zT5djsZh3MkTWk/n89hEl2mlmERsswuWE3mKKpdV/LtThQ2mljO8E67btA3KQ5YRU3IvHKU+HyTCc6e50gSXrG4IeyLPFhHeC5cxLh4axA58c6e3N0QVAgm8mpuMvJCfKQZ9iSpxxsSPOzc0ZpQLdXjMQJUhLs92B41p9H2AHpt7HkXsV0JbLfOeQYor2TXmBrAIkl+K6OxdWEvRlp+OK6gTdg1XIp9GLg5HNleXoAQicwkcirEIWCI5iO1qEHFH30jZ8RMTufcjnjkQEruOK5bEp6ujcHPmpN0YkigBsiBH1ZHQlSujpFFRycsAofaG57StZqY0Ee+id4rnOq9gxUx2Lkgn6Vpk7rqiW6AJPGwTUoXmleeNwgFd6NO1Wregb0o8hF0N0L0rAiLmV7vFSYvtYxsQOM0d9G850CDU4L02u1FeyeT0bzcvYuWVsM5C/XllHjqfbxkDOajTbLyEUA/PWHSCg4SxM9NZ34G4SPeA4uyEmZljbnSTw2RzsUtBaUUDm0cA6d7OxJsKq9EHtDFiyrqA+WbM8zXHWeBwKeexvse7p/CPQMT1ZRsuDBRFqljE1MuPKrCRJAMIEmaLt2g1tLRcIpul9USKp4sB8I1dMRfBe5IL2cKxfGqEXA/3QuZMYi6fc1EGmg/1u+SJPBSOofTR284SxBi6jnYKtfb+5HrA+z36NiAjvGM96qTxYj1zXXZganJhmdBE8nL4SNTSCJur5TB4I06/l2NrQZAlDviKPZfBeQeJDrroEZ4RPG9I0ZOj2sTWuNJ2M9/N+bAasZzkpZ+p1MBoj+4nWLaVNwhIY0U/+aSJmFi7y4H6MnjsHsY7pWc7I1k+PY3WdtJjBL+v5ZD6f/dk/RyRH2IFXYd9jJMG76Zag1utR0TIbPYPTUlFL/vxfVJaGVUbvL+QoiAOTn2hdN6wGmj5ZKMUxcvQ/uKtJjFwVI9yLC9uvA+BnOZrHkkDTMst58hvXEuQ9WCYY1Z3/4jCmaOHaoacbYnIZ5IGuyctJLOAy2fqKTSYw2f/mXgDFwX2F+w4dCKrX61JyJZrMW2U3CEVRnM7FPTHM0fDlzz8KctewjguhHJiQMyuYoTmc98gQd9qRSEvC2Rx3BSZdntTPPYKUwvO84NAzCNDKxgzVsf0QjqAlF4UNRVehKBeH3xTghyH6fYIgKOm7eWu1MQFHnmS0vryMo08mr2dIiQ3bDhOSBjfUxwONdm/u6g1XxwpRzwPI45jxz4EDBw4cOHDgwIEDBw4cOHDgwIGDe4n/B3+BjXOLALmUAAAAAElFTkSuQmCC;" vertex="1" parent="1">
          <mxGeometry x="200" y="90.46000000000001" width="100" height="29.54" as="geometry" />
        </mxCell>
      </root>
    </mxGraphModel>
  </diagram>
</mxfile>
